<?xml version="1.0" encoding="UTF-8" standalone="no"?>
<!-- Created with Inkscape (http://www.inkscape.org/) -->

<svg
   xmlns:dc="http://purl.org/dc/elements/1.1/"
   xmlns:cc="http://creativecommons.org/ns#"
   xmlns:rdf="http://www.w3.org/1999/02/22-rdf-syntax-ns#"
   xmlns:svg="http://www.w3.org/2000/svg"
   xmlns="http://www.w3.org/2000/svg"
   xmlns:sodipodi="http://sodipodi.sourceforge.net/DTD/sodipodi-0.dtd"
   xmlns:inkscape="http://www.inkscape.org/namespaces/inkscape"
   width="800.40002"
   height="812.40002"
   viewBox="0 0 800.40003 812.40006"
   id="svg4912"
   version="1.1"
   inkscape:version="0.91 r13725"
   sodipodi:docname="Coat_of_Arms_of_Cyprus.svg">
  <defs
     id="defs4914" />
  <sodipodi:namedview
     id="base"
     pagecolor="#ffffff"
     bordercolor="#666666"
     borderopacity="1.0"
     inkscape:pageopacity="0.0"
     inkscape:pageshadow="2"
     inkscape:zoom="0.57421876"
     inkscape:cx="-4.6718838"
     inkscape:cy="351.87647"
     inkscape:document-units="px"
     inkscape:current-layer="layer1"
     showgrid="false"
     fit-margin-top="0"
     fit-margin-left="0"
     fit-margin-right="0"
     fit-margin-bottom="0"
     units="px"
     inkscape:window-width="1920"
     inkscape:window-height="1057"
     inkscape:window-x="-8"
     inkscape:window-y="-8"
     inkscape:window-maximized="1" />
  <metadata
     id="metadata4917">
    <rdf:RDF>
      <cc:Work
         rdf:about="">
        <dc:format>image/svg+xml</dc:format>
        <dc:type
           rdf:resource="http://purl.org/dc/dcmitype/StillImage" />
        <dc:title></dc:title>
      </cc:Work>
    </rdf:RDF>
  </metadata>
  <g
     inkscape:label="Layer 1"
     inkscape:groupmode="layer"
     id="layer1"
     transform="translate(-248.6475,2002.7764)">
    <path
       d="m 265.41406,-1964.0969 c 0,0 -8.97467,24.9226 -8.64571,60.5532 0.37615,40.7335 21.38495,60.612 21.38495,60.612 0,0 17.79672,-24.2824 8.50448,-63.9785 -10.39552,-44.4073 -21.24372,-57.1867 -21.24372,-57.1867"
       style="fill:#4e5a30;fill-opacity:1;fill-rule:nonzero;stroke:none"
       id="path5660"
       inkscape:connector-curvature="0" />
    <path
       d="m 322.35022,-1732.4085 c -0.37945,-10.8533 4.47289,-19.8321 10.83789,-20.0548 6.36492,-0.2219 11.83287,8.3972 12.21231,19.2505 0.37945,10.8554 -4.47298,19.8342 -10.8379,20.0559 -6.365,0.2228 -11.83393,-8.3972 -12.2123,-19.2516"
       style="fill:#4e5a30;fill-opacity:1;fill-rule:nonzero;stroke:none"
       id="path5662"
       inkscape:connector-curvature="0" />
    <path
       d="m 358.19418,-1504.4186 c 0,0 10.43264,24.3483 34.97282,50.1834 28.05614,29.5327 56.97732,29.7441 56.97732,29.7441 0,0 -3.54285,-29.8956 -37.41231,-52.59 -37.88867,-25.3897 -54.53783,-27.3375 -54.53783,-27.3375"
       style="fill:#4e5a30;fill-opacity:1;fill-rule:nonzero;stroke:none"
       id="path5664"
       inkscape:connector-curvature="0" />
    <path
       d="m 452.93034,-1522.3226 c 0,0 -3.59547,26.2435 4.13363,61.0276 8.83658,39.7652 33.51897,54.8429 33.51897,54.8429 0,0 12.35971,-27.4529 -4.98333,-64.3496 -19.40112,-41.2769 -32.66927,-51.5209 -32.66927,-51.5209"
       style="fill:#4e5a30;fill-opacity:1;fill-rule:nonzero;stroke:none"
       id="path5666"
       inkscape:connector-curvature="0" />
    <path
       d="m 417.41427,-1496.5349 c -2.62732,-10.5388 0.25076,-20.3301 6.4309,-21.8705 6.1804,-1.5405 13.32078,5.7535 15.949,16.2923 2.62724,10.5378 -0.25076,20.3302 -6.4309,21.8706 -6.18147,1.5384 -13.32078,-5.7546 -15.949,-16.2924"
       style="fill:#4e5a30;fill-opacity:1;fill-rule:nonzero;stroke:none"
       id="path5668"
       inkscape:connector-curvature="0" />
    <path
       d="m 445.18574,-1395.0223 c -7.26816,-8.0705 -9.32211,-18.0669 -4.58937,-22.3295 4.73273,-4.2615 14.46315,-1.1733 21.7304,6.897 7.26816,8.0714 9.32317,18.07 4.58937,22.3305 -4.73274,4.2626 -14.46109,1.1744 -21.7304,-6.898"
       style="fill:#4e5a30;fill-opacity:1;fill-rule:nonzero;stroke:none"
       id="path5670"
       inkscape:connector-curvature="0" />
    <path
       d="m 400.61556,-1631.7023 c 0,0 -10.26659,24.4174 -11.80292,60.017 -1.75592,40.6974 18.18334,61.6493 18.18334,61.6493 0,0 19.04337,-23.3182 11.84013,-63.4465 -8.056,-44.8909 -18.22055,-58.2198 -18.22055,-58.2198"
       style="fill:#4e5a30;fill-opacity:1;fill-rule:nonzero;stroke:none"
       id="path5672"
       inkscape:connector-curvature="0" />
    <path
       d="m 360.51316,-1600.0796 c -0.37944,-10.8543 4.4729,-19.8342 10.83889,-20.0559 6.36393,-0.2218 11.83286,8.3973 12.21123,19.2516 0.37945,10.8544 -4.47182,19.8332 -10.83781,20.0548 -6.36492,0.2228 -11.83286,-8.3972 -12.21231,-19.2505"
       style="fill:#4e5a30;fill-opacity:1;fill-rule:nonzero;stroke:none"
       id="path5674"
       inkscape:connector-curvature="0" />
    <path
       d="m 359.22429,-1526.4263 c -5.26585,-9.4995 -5.01938,-19.7032 0.55184,-22.7914 5.56999,-3.0892 14.35592,2.1086 19.62177,11.6081 5.26577,9.4995 5.01839,19.7032 -0.55184,22.7913 -5.57097,3.0882 -14.35592,-2.1096 -19.62177,-11.608"
       style="fill:#4e5a30;fill-opacity:1;fill-rule:nonzero;stroke:none"
       id="path5676"
       inkscape:connector-curvature="0" />
    <path
       d="m 260.35863,-1805.8267 c -4.24399,-9.9975 -2.93145,-20.1197 2.93145,-22.6088 5.86282,-2.4881 14.0569,3.5985 18.30089,13.5981 4.24399,9.9964 2.93244,20.1187 -2.93136,22.6067 -5.8629,2.4902 -14.056,-3.5974 -18.30098,-13.596"
       style="fill:#4e5a30;fill-opacity:1;fill-rule:nonzero;stroke:none"
       id="path5678"
       inkscape:connector-curvature="0" />
    <path
       d="m 311.49483,-1868.1029 c 0,0 -11.11316,24.0431 -13.89093,59.5675 -3.17479,40.6118 16.02118,62.2463 16.02118,62.2463 0,0 19.84547,-22.6377 14.04766,-62.9938 -6.4856,-45.1445 -16.17791,-58.82 -16.17791,-58.82"
       style="fill:#4e5a30;fill-opacity:1;fill-rule:nonzero;stroke:none"
       id="path5680"
       inkscape:connector-curvature="0" />
    <path
       d="m 248.84747,-1793.4937 c 0,0 2.39833,26.3796 17.75449,58.5333 17.55438,36.7575 44.99598,45.8961 44.99598,45.8961 0,0 5.86793,-29.5285 -19.33001,-61.5791 -28.1891,-35.8533 -43.42046,-42.8503 -43.42046,-42.8503"
       style="fill:#4e5a30;fill-opacity:1;fill-rule:nonzero;stroke:none"
       id="path5682"
       inkscape:connector-curvature="0" />
    <path
       d="m 535.92537,-1426.3099 c 0,0 0.0899,26.4888 12.58556,59.8582 14.28481,38.1485 40.82623,49.6432 40.82623,49.6432 0,0 8.41787,-28.9047 -13.89085,-63.0289 -24.95774,-38.1743 -39.52094,-46.4725 -39.52094,-46.4725"
       style="fill:#4e5a30;fill-opacity:1;fill-rule:nonzero;stroke:none"
       id="path5684"
       inkscape:connector-curvature="0" />
    <path
       d="m 451.68989,-1372.9703 c 0,0 16.7399,20.5291 47.45214,38.5981 35.10785,20.6569 62.96807,12.8887 62.96807,12.8887 0,0 -11.64735,-27.7613 -50.46087,-40.2427 -43.41849,-13.96 -59.95934,-11.2441 -59.95934,-11.2441"
       style="fill:#4e5a30;fill-opacity:1;fill-rule:nonzero;stroke:none"
       id="path5686"
       inkscape:connector-curvature="0" />
    <path
       d="m 504.51817,-1385.8054 c -4.06978,-10.0697 -2.58088,-20.1683 3.32425,-22.5531 5.90612,-2.385 13.99198,3.8439 18.06069,13.9136 4.06969,10.0686 2.58186,20.1662 -3.32327,22.551 -5.90612,2.386 -13.99091,-3.8418 -18.06167,-13.9115"
       style="fill:#4e5a30;fill-opacity:1;fill-rule:nonzero;stroke:none"
       id="path5688"
       inkscape:connector-curvature="0" />
    <path
       d="m 361.67731,-1745.3673 c 0,0 -11.11324,24.0451 -13.89101,59.5696 -3.17578,40.6107 16.01911,62.2452 16.01911,62.2452 0,0 19.84663,-22.6388 14.04981,-62.9949 -6.48568,-45.1444 -16.17791,-58.8199 -16.17791,-58.8199"
       style="fill:#4e5a30;fill-opacity:1;fill-rule:nonzero;stroke:none"
       id="path5690"
       inkscape:connector-curvature="0" />
    <path
       d="m 315.32433,-1661.3752 c -4.244,-9.9965 -2.93244,-20.1187 2.93037,-22.6078 5.86389,-2.4891 14.05698,3.5974 18.30098,13.596 4.24498,9.9975 2.93243,20.1198 -2.93046,22.6099 -5.86381,2.488 -14.0569,-3.5996 -18.30089,-13.5981"
       style="fill:#4e5a30;fill-opacity:1;fill-rule:nonzero;stroke:none"
       id="path5692"
       inkscape:connector-curvature="0" />
    <path
       d="m 279.09877,-1668.7878 c 0,0 5.14311,25.9836 23.7761,56.3567 21.30039,34.7211 49.54625,40.9417 49.54625,40.9417 0,0 2.74997,-29.9802 -25.65987,-59.221 -31.78252,-32.7105 -47.66248,-38.0774 -47.66248,-38.0774"
       style="fill:#4e5a30;fill-opacity:1;fill-rule:nonzero;stroke:none"
       id="path5694"
       inkscape:connector-curvature="0" />
    <path
       d="m 581.77204,-1304.4952 c 0,0 17.89984,8.9499 59.40972,34.5841 29.00269,17.9111 72.40871,56.536 72.40871,56.536 0,0 -8.94983,-1.6209 -15.06432,5.3039 -6.11539,6.9249 -6.92484,17.4947 -6.92484,17.4947 0,0 -4.45533,-36.6101 -50.82481,-70.3847 -37.34937,-27.2045 -59.00446,-43.534 -59.00446,-43.534"
       style="fill:#4e5a30;fill-opacity:1;fill-rule:nonzero;stroke:none"
       id="path5696"
       inkscape:connector-curvature="0" />
    <path
       inkscape:connector-curvature="0"
       id="path6555"
       style="fill:#4e5a30;fill-opacity:1;fill-rule:nonzero;stroke:none"
       d="m 1032.2809,-1964.0969 c 0,0 8.9747,24.9226 8.6457,60.5532 -0.3761,40.7335 -21.3849,60.612 -21.3849,60.612 0,0 -17.7967,-24.2823 -8.5045,-63.9785 10.3955,-44.4072 21.2437,-57.1867 21.2437,-57.1867" />
    <path
       inkscape:connector-curvature="0"
       id="path6557"
       style="fill:#4e5a30;fill-opacity:1;fill-rule:nonzero;stroke:none"
       d="m 975.34474,-1732.4085 c 0.3794,-10.8533 -4.4729,-19.8321 -10.8379,-20.0548 -6.3649,-0.2219 -11.8329,8.3972 -12.2123,19.2506 -0.3795,10.8554 4.473,19.8341 10.8379,20.0559 6.365,0.2227 11.8339,-8.3973 12.2123,-19.2517" />
    <path
       inkscape:connector-curvature="0"
       id="path6559"
       style="fill:#4e5a30;fill-opacity:1;fill-rule:nonzero;stroke:none"
       d="m 939.50074,-1504.4186 c 0,0 -10.4326,24.3483 -34.9728,50.1835 -28.0561,29.5326 -56.9773,29.7441 -56.9773,29.7441 0,0 3.5428,-29.8957 37.4123,-52.5901 37.8887,-25.3897 54.5378,-27.3375 54.5378,-27.3375" />
    <path
       inkscape:connector-curvature="0"
       id="path6561"
       style="fill:#4e5a30;fill-opacity:1;fill-rule:nonzero;stroke:none"
       d="m 844.76464,-1522.3226 c 0,0 3.5954,26.2435 -4.1337,61.0276 -8.8366,39.7653 -33.5189,54.8429 -33.5189,54.8429 0,0 -12.3598,-27.4529 4.9833,-64.3496 19.4011,-41.2769 32.6693,-51.5209 32.6693,-51.5209" />
    <path
       inkscape:connector-curvature="0"
       id="path6563"
       style="fill:#4e5a30;fill-opacity:1;fill-rule:nonzero;stroke:none"
       d="m 880.28064,-1496.5348 c 2.6273,-10.5388 -0.2507,-20.3301 -6.4309,-21.8706 -6.1804,-1.5404 -13.3208,5.7535 -15.949,16.2923 -2.6272,10.5378 0.2508,20.3302 6.4309,21.8707 6.1815,1.5384 13.3208,-5.7546 15.949,-16.2924" />
    <path
       inkscape:connector-curvature="0"
       id="path6565"
       style="fill:#4e5a30;fill-opacity:1;fill-rule:nonzero;stroke:none"
       d="m 852.50924,-1395.0223 c 7.2681,-8.0704 9.3221,-18.0669 4.5893,-22.3294 -4.7327,-4.2616 -14.4631,-1.1734 -21.7304,6.8969 -7.2681,8.0715 -9.3231,18.07 -4.5893,22.3305 4.7327,4.2626 14.461,1.1744 21.7304,-6.898" />
    <path
       inkscape:connector-curvature="0"
       id="path6567"
       style="fill:#4e5a30;fill-opacity:1;fill-rule:nonzero;stroke:none"
       d="m 897.07934,-1631.7023 c 0,0 10.2666,24.4174 11.803,60.017 1.7559,40.6974 -18.1834,61.6493 -18.1834,61.6493 0,0 -19.0434,-23.3182 -11.8401,-63.4464 8.056,-44.8909 18.2205,-58.2199 18.2205,-58.2199" />
    <path
       inkscape:connector-curvature="0"
       id="path6569"
       style="fill:#4e5a30;fill-opacity:1;fill-rule:nonzero;stroke:none"
       d="m 937.18174,-1600.0796 c 0.3795,-10.8543 -4.4729,-19.8342 -10.8389,-20.0558 -6.3639,-0.2219 -11.8328,8.3972 -12.2112,19.2515 -0.3794,10.8544 4.4718,19.8332 10.8378,20.0549 6.3649,0.2227 11.8329,-8.3973 12.2123,-19.2506" />
    <path
       inkscape:connector-curvature="0"
       id="path6571"
       style="fill:#4e5a30;fill-opacity:1;fill-rule:nonzero;stroke:none"
       d="m 938.47064,-1526.4263 c 5.2659,-9.4995 5.0194,-19.7032 -0.5518,-22.7914 -5.57,-3.0891 -14.356,2.1087 -19.6218,11.6081 -5.2658,9.4995 -5.0184,19.7033 0.5518,22.7914 5.571,3.0881 14.356,-2.1097 19.6218,-11.6081" />
    <path
       inkscape:connector-curvature="0"
       id="path6573"
       style="fill:#4e5a30;fill-opacity:1;fill-rule:nonzero;stroke:none"
       d="m 1037.3364,-1805.8267 c 4.244,-9.9975 2.9314,-20.1197 -2.9315,-22.6088 -5.8628,-2.4881 -14.0569,3.5985 -18.3009,13.5981 -4.244,9.9965 -2.9324,20.1188 2.9314,22.6068 5.8629,2.4901 14.056,-3.5975 18.301,-13.5961" />
    <path
       inkscape:connector-curvature="0"
       id="path6575"
       style="fill:#4e5a30;fill-opacity:1;fill-rule:nonzero;stroke:none"
       d="m 986.20014,-1868.1028 c 0,0 11.1131,24.0431 13.89086,59.5675 3.1749,40.6117 -16.02116,62.2462 -16.02116,62.2462 0,0 -19.8455,-22.6377 -14.0476,-62.9938 6.4856,-45.1445 16.1779,-58.8199 16.1779,-58.8199" />
    <path
       inkscape:connector-curvature="0"
       id="path6577"
       style="fill:#4e5a30;fill-opacity:1;fill-rule:nonzero;stroke:none"
       d="m 1048.8475,-1793.4937 c 0,0 -2.3983,26.3796 -17.7545,58.5333 -17.5543,36.7575 -44.99596,45.8962 -44.99596,45.8962 0,0 -5.868,-29.5286 19.33006,-61.5792 28.1891,-35.8533 43.4204,-42.8503 43.4204,-42.8503" />
    <path
       inkscape:connector-curvature="0"
       id="path6579"
       style="fill:#4e5a30;fill-opacity:1;fill-rule:nonzero;stroke:none"
       d="m 761.76954,-1426.3099 c 0,0 -0.09,26.4889 -12.5855,59.8582 -14.28484,38.1485 -40.82626,49.6432 -40.82626,49.6432 0,0 -8.41787,-28.9047 13.89085,-63.0289 24.95771,-38.1742 39.52091,-46.4725 39.52091,-46.4725" />
    <path
       inkscape:connector-curvature="0"
       id="path6581"
       style="fill:#4e5a30;fill-opacity:1;fill-rule:nonzero;stroke:none"
       d="m 846.00504,-1372.9703 c 0,0 -16.7399,20.5291 -47.4521,38.5981 -35.1079,20.657 -62.9681,12.8887 -62.9681,12.8887 0,0 11.6473,-27.7613 50.4609,-40.2426 43.4185,-13.9601 59.9593,-11.2442 59.9593,-11.2442" />
    <path
       inkscape:connector-curvature="0"
       id="path6583"
       style="fill:#4e5a30;fill-opacity:1;fill-rule:nonzero;stroke:none"
       d="m 793.17674,-1385.8054 c 4.0698,-10.0697 2.5809,-20.1682 -3.3242,-22.5531 -5.9061,-2.385 -13.992,3.8439 -18.0607,13.9136 -4.0697,10.0686 -2.5819,20.1662 3.3233,22.5511 5.9061,2.3859 13.9909,-3.8419 18.0616,-13.9116" />
    <path
       inkscape:connector-curvature="0"
       id="path6585"
       style="fill:#4e5a30;fill-opacity:1;fill-rule:nonzero;stroke:none"
       d="m 936.01764,-1745.3673 c 0,0 11.1132,24.0452 13.891,59.5696 3.1758,40.6108 -16.0191,62.2452 -16.0191,62.2452 0,0 -19.8466,-22.6387 -14.0498,-62.9949 6.4857,-45.1444 16.1779,-58.8199 16.1779,-58.8199" />
    <path
       inkscape:connector-curvature="0"
       id="path6587"
       style="fill:#4e5a30;fill-opacity:1;fill-rule:nonzero;stroke:none"
       d="m 982.37064,-1661.3752 c 4.244,-9.9965 2.9324,-20.1187 -2.9304,-22.6078 -5.8639,-2.4891 -14.057,3.5975 -18.301,13.5961 -4.245,9.9975 -2.9324,20.1197 2.9305,22.6098 5.8638,2.488 14.0569,-3.5996 18.3009,-13.5981" />
    <path
       inkscape:connector-curvature="0"
       id="path6589"
       style="fill:#4e5a30;fill-opacity:1;fill-rule:nonzero;stroke:none"
       d="m 1018.5962,-1668.7878 c 0,0 -5.1431,25.9837 -23.77616,56.3567 -21.3004,34.7212 -49.5462,40.9417 -49.5462,40.9417 0,0 -2.75,-29.9801 25.6598,-59.2209 31.78266,-32.7106 47.66256,-38.0775 47.66256,-38.0775" />
    <path
       inkscape:connector-curvature="0"
       id="path6591"
       style="fill:#4e5a30;fill-opacity:1;fill-rule:nonzero;stroke:none"
       d="m 715.9229,-1304.4952 c 0,0 -17.89984,8.95 -59.40972,34.5841 -29.00269,17.9111 -72.40871,56.536 -72.40871,56.536 0,0 8.94983,-1.6209 15.06432,5.3039 6.11539,6.9249 6.92484,17.4947 6.92484,17.4947 0,0 4.45533,-36.6101 50.82481,-70.3847 37.34937,-27.2044 59.00446,-43.534 59.00446,-43.534" />
    <path
       style="fill:#d87900;fill-opacity:1;fill-rule:nonzero;stroke:none"
       d="m 399.96251,-2002.5762 c 0,0 -14.4255,201.087 60.4961,348.209 79.9466,156.9944 187.55469,213.0742 187.55469,213.0742 l 0.8339,0.3555 0.834,-0.3555 c 0,0 107.608,-56.0798 187.5547,-213.0742 74.9216,-147.122 60.4961,-348.209 60.4961,-348.209 0,0 -55.1917,35.8642 -109.7539,48.623 -76.4229,17.8719 -138.7449,16.4339 -139.1309,16.4239 -0.3859,0.01 -62.708,1.448 -139.13079,-16.4239 -54.5622,-12.7588 -109.7539,-48.623 -109.7539,-48.623 z"
       id="path6602"
       inkscape:connector-curvature="0" />
    <path
       inkscape:connector-curvature="0"
       id="path6613"
       style="fill:#ffffff;fill-opacity:1;fill-rule:nonzero;stroke:none"
       d="m 434.14765,-1944.7794 c 0,0 46.42456,49.1612 68.30972,66.0287 21.88425,16.8664 76.17789,51.31 93.62286,72.3966 19.47919,23.5476 33.67599,55.707 36.52736,63.4295 4.28332,11.6006 14.17838,28.6066 14.17838,28.6066 0,0 -23.81715,12.4168 -35.40343,22.1135 -14.22169,11.8993 -27.83178,30.7617 -27.83178,30.7617 0,0 -11.75257,-1.8565 -19.32629,-8.0386 -7.57569,-6.1811 -13.29386,-13.7558 -13.29386,-13.7558 0,0 10.50663,2.932 15.14932,3.8608 4.64276,0.9277 13.46446,1.3926 13.61008,-0.4653 0.14712,-1.8566 -12.29383,-6.5551 -23.50514,-12.3632 -14.42928,-7.4755 -25.04436,-18.8634 -25.04436,-18.8634 0,0 12.68021,4.7895 20.25492,6.6459 7.57468,1.8575 13.86834,4.0818 14.79814,1.7594 0.92781,-2.3203 -20.76939,-9.4973 -34.58924,-17.8365 -20.27154,-12.2329 -29.68723,-31.0809 -29.68723,-31.0809 0,0 21.79127,13.6132 31.22242,17.791 9.43222,4.179 20.25914,9.111 21.65174,8.1822 1.39361,-0.9277 2.32134,-1.0744 1.85752,-2.9319 -0.46366,-1.8565 -6.15009,-3.6665 -14.18969,-7.5282 -8.03745,-3.8608 -17.49554,-11.9199 -23.92045,-16.009 -18.78585,-11.9582 -31.99518,-35.8693 -31.99518,-35.8693 0,0 27.33489,19.5804 33.05208,22.5123 5.71819,2.932 24.37089,12.3136 26.22948,9.9922 1.85644,-2.3204 -1.5394,-3.2491 -2.93202,-4.6417 -1.39362,-1.3937 -34.08404,-20.6269 -42.83342,-27.3669 -25.30068,-19.4864 -30.7472,-45.3325 -30.7472,-45.3325 0,0 24.10129,21.6807 34.46224,28.3266 10.35896,6.646 30.76066,18.8634 33.54797,17.0059 2.78516,-1.8565 1.53825,-2.0032 -0.46613,-3.8607 -2.00315,-1.8565 -17.85921,-7.4869 -41.58544,-30.616 -27.36581,-26.6778 -34.92613,-48.6508 -34.92613,-48.6508 0,0 28.43825,24.3109 38.33438,32.3495 9.89605,8.0386 27.81731,20.0153 31.06737,20.9451 3.24915,0.9277 5.25444,1.8554 6.646,0 1.3936,-1.8575 1.07541,-4.1789 -0.92773,-6.0364 -2.00423,-1.8565 -18.42642,-13.326 -30.29883,-23.187 -12.47269,-10.3599 -33.31656,-28.2594 -43.90892,-42.0513 -17.7911,-23.1695 -27.10968,-56.2226 -27.10968,-56.2226" />
    <path
       inkscape:connector-curvature="0"
       id="path6615"
       style="fill:#ffffff;fill-opacity:1;fill-rule:nonzero;stroke:none"
       d="m 667.72381,-1722.7203 c 0,0 4.71508,-10.4178 8.60368,-19.3851 3.89067,-8.9663 11.14511,-26.1768 17.93465,-34.4189 14.30848,-17.3623 24.23758,-26.0734 40.48728,-38.7691 21.56086,-16.8469 41.67742,-33.8755 58.15334,-46.1891 30.79364,-23.0113 64.22178,-66.76 64.22178,-66.76 0,0 -5.43825,26.902 -20.47196,50.5403 -12.96643,20.3883 -38.86837,51.991 -40.22074,53.804 -1.3513,1.8121 -3.79355,5.0767 -2.0786,6.1646 1.71701,1.0878 3.16749,1.4504 5.34114,-0.362 2.17571,-1.8142 8.92699,-7.4859 15.76101,-14.4088 7.51685,-7.6139 18.6589,-20.7364 18.6589,-20.7364 0,0 -2.53837,22.9122 -16.84684,39.76 -14.30847,16.8458 -30.06642,32.6058 -31.88154,34.0563 -1.81206,1.4504 -7.25032,6.7916 -5.79984,8.6046 1.45047,1.8121 3.72331,0.8232 6.1635,-0.9897 2.44018,-1.813 15.66075,-13.4169 19.6496,-16.5823 3.98777,-3.1654 14.76923,-14.3084 14.76923,-14.3084 0,0 -6.49821,19.0814 -17.20942,31.1552 -11.40752,12.858 -29.80294,25.8142 -32.70389,27.9899 -2.90202,2.1746 -9.33098,7.8794 -7.51685,8.9673 1.55478,0.9328 3.16542,1.3523 6.43003,-0.3628 3.26254,-1.715 19.38513,-12.4954 19.38513,-12.4954 0,0 -3.89066,17.2094 -21.46373,29.4403 -13.26611,9.2339 -29.80401,16.1215 -29.80401,16.1215 0,0 -1.91124,-19.1206 -22.64867,-24.4618 -20.73643,-5.3421 -46.91318,3.6252 -46.91318,3.6252" />
    <path
       inkscape:connector-curvature="0"
       id="path6617"
       style="fill:#ffffff;fill-opacity:1;fill-rule:nonzero;stroke:none"
       d="m 557.32136,-1596.814 c 0,0 16.40766,-51.6644 56.91254,-88.2466 27.17572,-24.5434 44.2901,-29.5622 62.47583,-33.7163 21.2768,-4.8576 38.95417,-1.7893 47.66736,8.2008 14.48615,16.6143 1.02276,31.2658 1.02276,31.2658 l 5.62528,19.4688 -16.65576,-9.9891 c 0,0 -3.83586,1.5341 -8.43936,2.0456 -4.65418,0.5165 -10.26285,-0.2554 -10.26285,-0.2554 0,0 -1.96702,6.2988 -3.32344,8.71 -2.30283,4.0932 -6.92187,8.9674 -6.92187,8.9674 0,0 16.53278,17.7518 19.98019,25.8803 8.54277,20.1279 9.75151,29.715 9.75151,29.715 l -14.61014,5.3856 c 0,0 -3.76769,-16.043 -8.45698,-24.0878 -7.61396,-13.0676 -16.39946,-21.2591 -16.39946,-21.2591 0,0 10.11299,20.2157 12.30838,26.6447 3.32452,9.7349 6.64905,20.2385 6.64905,20.2385 l -15.10396,3.5787 c 0,0 -3.18915,-12.9179 -6.15523,-21.002 -3.85239,-10.5025 -14.61013,-27.1592 -14.61013,-27.1592 0,0 5.89902,22.0278 8.71211,30.4827 1.92472,5.7843 4.10869,18.7188 4.10869,18.7188 l -15.63398,1.278 c 0,0 -2.88442,-16.9109 -3.57966,-20.7633 -1.80587,-9.9912 -8.45698,-27.9259 -8.45698,-27.9259 0,0 -0.76697,20.2375 0,27.4144 0.76863,7.176 3.06931,21.7861 3.06931,21.7861 l -17.67944,-0.2546 c 0,0 -1.02277,-16.1453 -1.02277,-21.7881 0,-5.6428 0.25621,-28.181 0.25621,-28.181 0,0 -5.34734,13.3457 -6.66458,26.1345 -1.08262,10.4963 -0.76781,23.5774 -0.76781,23.5774 l -17.16702,-1.0217 c 0,0 0.25538,-16.4016 2.55689,-26.6468 2.30175,-10.2463 6.92179,-23.3223 6.92179,-23.3223 0,0 -9.9911,11.5253 -13.31571,22.283 -2.66226,8.6129 -4.87516,25.8781 -4.87516,25.8781 l -16.14533,-3.0672 c 0,0 0.78433,-11.5098 4.36482,-22.0268 3.57975,-10.5191 10.50152,-26.902 10.50152,-26.902 0,0 -9.12121,10.2061 -15.88911,25.0951 -5.33701,11.7453 -5.6252,22.0423 -5.6252,22.0423" />
    <path
       inkscape:connector-curvature="0"
       id="path6621"
       style="fill:#ffffff;fill-opacity:1;fill-rule:evenodd;stroke:none"
       d="m 708.48797,-1629.1036 5.11385,5.9 c 0,0 1.55173,-5.6438 3.59727,-9.2245 2.04661,-3.5798 4.09215,-5.6428 4.09215,-5.6428 0,0 5.53322,2.6354 13.8425,0.7686 10.24631,-2.3028 22.53915,-12.2929 22.53915,-12.2929 0,0 -13.0604,-0.5108 -19.46877,0.5116 -7.35775,1.1746 -14.08325,5.898 -14.08325,5.898 0,0 4.58797,-8.7267 8.18317,-12.5636 3.59726,-3.8349 9.49528,-9.9901 9.49528,-9.9901 0,0 5.10146,7.0654 12.8032,7.6883 9.47975,0.7678 21.25918,-5.1148 21.25918,-5.1148 0,0 -4.09109,-4.8742 -13.05842,-6.6646 -7.57776,-1.5134 -15.88911,-0.257 -15.88911,-0.257 0,0 4.10869,-3.8524 7.68835,-5.6418 3.58181,-1.7904 8.45491,-3.5807 8.45491,-3.5807 0,0 3.91338,7.2699 14.35607,8.9673 11.01287,1.7914 21.77053,-0.2553 21.77053,-0.2553 0,0 -4.60252,-6.394 -11.27016,-8.9674 -6.6645,-2.5734 -15.63183,-3.0858 -15.63183,-3.0858 0,0 6.15315,-2.557 9.22254,-3.3235 3.0703,-0.7687 7.43314,-1.279 7.43314,-1.279 0,0 4.34729,8.1987 14.5936,9.2225 8.76071,0.874 19.4853,-2.0466 19.4853,-2.0466 0,0 -5.38759,-5.1304 -13.07387,-7.4321 -7.69041,-2.3018 -12.54914,-2.558 -12.54914,-2.558 l 17.42225,-5.6428 -21.78599,1.7904 c 0,0 6.92278,-5.3215 10.24524,-9.2225 5.89902,-6.9218 8.45598,-14.0822 8.45598,-14.0822 0,0 -14.09771,5.8814 -19.72299,12.0366 -5.62736,6.1532 -10.50352,13.0584 -10.50352,13.0584 l -6.40936,3.0859 c 0,0 5.89794,-6.9063 7.43313,-10.7577 1.53411,-3.8524 3.85239,-11.5418 3.85239,-11.5418 0,0 -12.05316,2.3028 -18.71873,12.3084 -4.44953,6.68 -8.45599,13.827 -12.29186,16.1278 -3.12617,1.8771 -8.1987,7.178 -8.1987,7.178 0,0 2.5735,-5.3712 5.13038,-12.293 2.55591,-6.9197 2.81311,-13.33 2.81311,-13.33 0,0 -15.15562,8.1459 -18.70222,15.888 -4.10868,8.9673 -2.04554,15.3767 -1.79032,16.6557 0.25538,1.279 1.02268,2.0466 1.02268,2.0466 0,0 -1.80585,2.3017 -6.9207,9.4787 -5.11494,7.178 -8.45491,12.0521 -8.45491,12.0521 0,0 1.53411,-3.8679 -1.53627,-10.5179 -3.0693,-6.6491 -9.22246,-10.5016 -9.22246,-10.5016 0,0 -2.08481,8.7546 -0.25704,16.4006 1.53626,6.4093 6.41044,9.7339 6.41044,9.7339" />
    <path
       inkscape:connector-curvature="0"
       id="path6623"
       style="fill:#ffffff;fill-opacity:1;fill-rule:nonzero;stroke:none"
       d="m 610.53198,-1520.5608 3.72785,0 0,-27.8537 -2.74657,0 c -1.09903,4.3167 -3.09876,5.1006 -7.33579,5.3754 l 0,2.7847 6.35451,0" />
    <path
       inkscape:connector-curvature="0"
       id="path6625"
       style="fill:#ffffff;fill-opacity:1;fill-rule:evenodd;stroke:none"
       d="m 629.73491,-1539.1161 c 0,-3.3363 2.19599,-6.12 5.60983,-6.12 3.41276,0 5.60982,2.7455 5.60982,6.0033 0,3.3322 -2.15782,6.0012 -5.60982,6.0012 -3.37451,0 -5.60983,-2.6297 -5.60983,-5.8845 z m -3.64924,11.6896 c 0.31483,4.6687 3.80634,7.6105 8.35629,7.6105 8.70851,0 10.86631,-8.4731 10.86631,-15.5743 0,-6.4723 -2.55032,-13.0242 -10.04203,-13.0242 -5.45273,0 -9.37584,4.2774 -9.37584,9.6114 0,4.9828 3.92311,8.8273 8.8274,8.8273 2.62765,0 4.86297,-1.099 6.58895,-3.0202 -0.39168,4.1966 -1.13729,10.0028 -6.51251,10.0028 -2.82401,0 -4.78555,-1.6093 -4.98073,-4.4333" />
    <path
       inkscape:connector-curvature="0"
       id="path6627"
       style="fill:#ffffff;fill-opacity:1;fill-rule:evenodd;stroke:none"
       d="m 667.21852,-1528.9955 c 0,3.296 -2.15881,6.0797 -5.57156,6.0797 -3.49126,0 -5.60982,-2.8633 -5.60982,-6.119 0,-3.3343 2.2363,-5.8845 5.64906,-5.8845 3.37351,0 5.53232,2.6287 5.53232,5.9238 z m 3.6462,-11.7288 c -0.27518,-4.7484 -4.00053,-7.6509 -8.58975,-7.6509 -8.1208,0 -10.59253,8.788 -10.59253,15.3792 0,6.5507 2.39322,13.18 10.00376,13.18 5.45274,0 9.37577,-4.237 9.37577,-9.5721 0,-4.9828 -3.84345,-8.787 -8.82624,-8.787 -2.70725,0 -4.82481,1.0194 -6.5911,3.0203 0.43053,-4.1968 1.17653,-10.0039 6.55184,-10.0039 3.0605,0 4.55104,1.5308 4.98172,4.4344" />
    <path
       inkscape:connector-curvature="0"
       id="path6629"
       style="fill:#ffffff;fill-opacity:1;fill-rule:evenodd;stroke:none"
       d="m 686.73347,-1545.1587 c 4.82473,0 5.60875,6.2378 5.60875,11.0626 0,4.7865 -0.78419,11.0233 -5.60875,11.0233 -4.8248,0 -5.57164,-6.2368 -5.57164,-11.0233 0,-4.8248 0.74701,-11.0626 5.57164,-11.0626 z m -8.94514,11.0626 c 0,6.5911 2.43255,14.3586 8.94514,14.3586 6.94319,0 8.944,-7.7675 8.944,-14.3586 0,-6.589 -2.00081,-14.3969 -8.944,-14.3969 -6.51259,0 -8.94514,7.8079 -8.94514,14.3969" />
    <circle
       style="opacity:1;fill:#d87900;fill-opacity:1;stroke:none;stroke-width:69.3789978;stroke-linecap:butt;stroke-linejoin:round;stroke-miterlimit:4;stroke-dasharray:none;stroke-dashoffset:0;stroke-opacity:1"
       id="path6640"
       cx="711.08167"
       cy="-1693.2507"
       r="8" />
  </g>
</svg>
