<svg xmlns="http://www.w3.org/2000/svg" xmlns:xlink="http://www.w3.org/1999/xlink" version="1" width="175" height="199"><defs><linearGradient id="a"><stop offset="0" stop-color="#ffcb05"/><stop offset=".461" stop-color="#d5a903"/><stop offset=".658" stop-color="#a18000"/><stop offset="1" stop-color="#ffcb05"/></linearGradient><linearGradient id="b"><stop offset="0"/><stop offset="1" stop-color="#ef9232"/></linearGradient><linearGradient id="c"><stop offset="0"/><stop offset="1" stop-opacity=".345"/></linearGradient><linearGradient id="e"><stop offset="0" stop-color="#ffcb05"/><stop offset=".461" stop-color="#d5a903"/><stop offset=".658"/><stop offset="1" stop-color="#ffcb05"/></linearGradient><linearGradient id="d"><stop offset="0"/><stop offset="1" stop-opacity=".424"/></linearGradient><linearGradient x1="82.46" y1="187.449" x2="95.176" y2="187.449" id="k" xlink:href="#a" gradientUnits="userSpaceOnUse"/><linearGradient x1="83.998" y1="172.53" x2="94.224" y2="172.53" id="j" xlink:href="#a" gradientUnits="userSpaceOnUse"/><linearGradient x1="94.908" y1="166.563" x2="79.946" y2="169.052" id="h" xlink:href="#b" gradientUnits="userSpaceOnUse" gradientTransform="translate(-.146 .732)"/><linearGradient x1="94.908" y1="166.563" x2="82.874" y2="170.224" id="i" xlink:href="#c" gradientUnits="userSpaceOnUse" gradientTransform="translate(-.146 .732)"/><linearGradient x1="91.953" y1="29.228" x2="89.261" y2="26.639" id="g" xlink:href="#d" gradientUnits="userSpaceOnUse" gradientTransform="translate(.155 .17)"/><linearGradient x1="83.925" y1="38.425" x2="93.638" y2="38.425" id="f" xlink:href="#e" gradientUnits="userSpaceOnUse" gradientTransform="translate(.155 .17)"/></defs><path fill="url(#f)" stroke="#000" stroke-linecap="square" stroke-linejoin="bevel" d="M84.58 29.443h8.713v18.305H84.58z"/><path d="M108.884 8.844s8.103 7.74 8.077 16.05c-.025 8.31-8.076 16.154-8.076 16.154s1.14-6.472-3.83-9.94C100.08 27.637 89 27.17 89 27.17c-5.178-.18-13.46 3.21-13.46 3.21l-10.253-5.384 10.25-5.385s7.974 3.632 13.462 3.728c0 0 11.158-1.138 16.05-4.763 4.893-3.624 3.832-9.733 3.832-9.733z" fill="#ffcd05" fill-rule="evenodd" stroke="#000"/><path d="M71.913 25.342h8.347l-4.32 2.563-4.027-2.563z" fill-rule="evenodd"/><rect width="11.08" height="10.459" rx="1.657" ry="1.657" x="82.996" y="20.234" fill="#ffcd05" stroke="#000" stroke-linejoin="bevel"/><rect width="8.077" height="2.899" rx="1.436" ry="1.657" x="21.425" y="-84.187" transform="rotate(90)" fill="#ffcd05" stroke="#000" stroke-linejoin="bevel"/><path d="M86.828 18.267l-3.728-6.42L88.692 1.49l5.074 10.357-3.107 6.42h-3.832z" fill="#ffcd05" fill-rule="evenodd" stroke="#000"/><rect width="8.388" height="3.314" rx="1.657" ry="1.657" x="84.342" y="17.024" fill="#ffcd05" stroke="#000" stroke-linejoin="bevel"/><path d="M87.397 29.4h4.712v-5.18c-1.037 2.693-2.85 4.505-4.713 5.18z" fill="url(#g)" fill-rule="evenodd"/><path d="M88.563 35.58c-6.99-.165-11.345 1.448-16.25 4.826V168.78h32.468V40.407c-4.446-3.716-9.228-4.66-16.218-4.826z" fill="#ffcb05" stroke="#000" stroke-width=".5" stroke-linejoin="bevel"/><path d="M75.55 38.5v126.52M79.508 36.72V163.83M83.552 35.864v127.113M89.37 35.633v127.114M98.17 36.85v127.114M101.57 38.27V165.38M93.57 35.96v127.113" fill="none" stroke="#000" stroke-width=".6"/><path d="M104.542 161.218c-1.47-2.733-3.95-5.426-6.708-7.648-2.782-2.243-7.682-5.968-11.025-8.295-3.263-2.27-10.537-6.66-14.34-5.325v-7.395c5.278-.814 16.548 7.725 18.197 8.653 5.837 4.267 9.284 7.67 13.894 13.237l-.018 6.773z" fill="#ef9232" fill-rule="evenodd" stroke="#000" stroke-width=".7"/><path d="M72.49 161.218c1.47-2.733 3.95-5.426 6.708-7.648 2.782-2.243 7.682-5.968 11.025-8.295 3.262-2.27 10.536-6.66 14.338-5.325v-7.395c-5.276-.814-16.546 7.725-18.195 8.653-5.837 4.267-9.284 7.67-13.894 13.237l.02 6.773z" fill="#ef9232" fill-rule="evenodd" stroke="#000" stroke-width=".7"/><path d="M72.49 161.218c2.196-1.904 5.272-3.076 8.054-3.662 2.782-.585 6.077-1.17 9.006-1.098 2.93.073 4.613.293 7.103 1.172 2.49.878 5.198 1.684 6.516 2.636 1.317.952 1.39 1.17 1.39 1.17v-7.394s-1.61-.732-2.928-1.172c-1.318-.44-3.77-1.464-5.602-1.72-1.813-.254-4.21-.77-8.164-.623-3.954.147-8.933 1.1-11.276 1.977-2.343.88-4.12 1.94-4.12 1.94l.02 6.774z" fill="#ef9232" fill-rule="evenodd" stroke="#000" stroke-width=".7"/><path d="M104.535 159.443l.047-1.346s-2.222-1.812-5.432-2.847c-3.21-1.036-4.763-.984-4.763-.984s1.243.26 2.485.673c1.243.413 3.987 1.966 4.505 2.277.517.31 3.26 2.278 3.158 2.226zM76.265 152.506c1.19-1.554 5.85-5.282 5.85-5.282s-1.966 2.02-2.588 2.848c-.62.828-1.294 1.916-1.294 1.916l-1.968.518zM72.383 134.477c2.44.265 5.538 2.61 6.315 4.112 0 0-2.578-1.764-3.57-2.058-.994-.294-2.558-.805-2.558-.805l-.187-1.25zM89.987 146.437c1.094.16 1.733.1 2.885.94 1.127.822 1.42.943 1.982 2.254-.94-.962-2.027-1.688-2.415-1.995-.382-.3-2.453-1.198-2.453-1.198zM92.6 145.925c1.062.303 2.324.482 3.357 1.466 1.01.963 1.08 1.69 1.462 3.064-.806-1.078-1.58-2.51-1.926-2.865-.338-.348-2.895-1.665-2.895-1.665z" fill-rule="evenodd"/><path d="M104.485 78.405c-1.472-2.732-3.95-5.426-6.71-7.648-2.78-2.243-7.68-5.968-11.024-8.295-3.26-2.27-10.535-6.66-14.337-5.324v-7.396c5.277-.814 16.547 7.725 18.196 8.653 5.836 4.268 9.283 7.67 13.893 13.237l-.018 6.773z" fill="#ef9232" fill-rule="evenodd" stroke="#000" stroke-width=".7"/><path d="M72.432 78.583c1.472-2.733 3.95-5.426 6.708-7.648 2.782-2.243 7.682-5.968 11.026-8.295 3.26-2.27 10.535-6.66 14.337-5.325V49.92c-5.277-.814-16.547 7.725-18.196 8.653-5.836 4.267-9.284 7.67-13.894 13.237l.02 6.773z" fill="#ef9232" fill-rule="evenodd" stroke="#000" stroke-width=".7"/><path d="M72.432 53.84c2.196-1.905 5.272-3.59 8.054-4.175s6.077-1.17 9.006-1.098c2.93.073 4.613.293 7.103 1.172 2.49.877 5.198 1.683 6.516 2.635 1.32.95 1.393 1.17 1.393 1.17v-7.394s-1.61-.73-2.93-1.17c-1.317-.44-3.77-1.465-5.6-1.722-1.814-.253-4.21-.768-8.165-.622-3.954.147-8.933 1.098-11.276 1.977-2.343.88-4.12 1.94-4.12 1.94l.02 7.286z" fill="#ef9232" fill-rule="evenodd" stroke="#000" stroke-width=".7"/><path d="M104.477 51.552l.047-1.346s-2.222-1.812-5.432-2.847c-3.21-1.037-4.763-.985-4.763-.985s1.242.26 2.484.673c1.243.414 3.987 1.967 4.505 2.278.516.31 3.26 2.278 3.157 2.226zM74.336 52.558c1.574 0 5.198 1.354 5.198 1.354-.55-.878-2.306-1.757-4.32-2.16l-.878.806zM72.468 55.157c1.575 0 5.2 1.355 5.2 1.355-.55-.88-3.076-1.868-5.09-2.27l-.11.915zM76.133 49.317s3.02-1.278 6.528-2.055c3.51-.777 7.505-1.052 7.505-1.052s-4.26-.62-7.767.156c-3.508.776-6.265 2.95-6.265 2.95z" fill-rule="evenodd"/><path d="M88.563 162.78c-8.96 0-16.25 2.583-16.25 5.75 0 3.17 7.29 5.75 16.25 5.75s16.218-2.58 16.218-5.75c0-3.167-7.258-5.75-16.218-5.75z" fill="#ef9232" stroke="#000" stroke-width=".5" stroke-linejoin="bevel"/><path d="M99.215 168.686a10.178 2.49 0 0 1-20.355 0 10.178 2.49 0 1 1 20.355 0z" fill="url(#h)" stroke="url(#i)" stroke-linecap="square" stroke-linejoin="bevel"/><path d="M84.498 167.002s2.306-.732 4.613-.732c2.307 0 4.614.732 4.614.732v11.79h-9.226V167z" fill="url(#j)" stroke="#000" stroke-linecap="square" stroke-linejoin="bevel"/><path d="M82.96 177.766c.88-1.318 2.93-1.648 5.858-1.648 2.93 0 4.54.403 5.858 1.648v17.28c0 1.508-2.93 3.734-5.858 3.734-2.93 0-5.858-2.233-5.858-3.734v-17.28z" fill="url(#k)" stroke="#000" stroke-linecap="square" stroke-linejoin="bevel"/><path d="M82.887 184.65c3.15-4.175 11.496-5.2 11.496-5.2M88.598 180.84c3.735.514 5.126 1.905 6.078 3.076" fill="none" stroke="#000"/><path d="M40.358 90.864s.586 2.05 4.394 4.54c3.807 2.49 8.64 4.98 11.276 5.42 2.636.438 8.054.73 10.544.145 2.49-.587 14.937-13.254 14.937-13.254h12.74s4.686 8.713 9.08 10.763c4.392 2.05 10.982 3.514 15.522 2.782 4.54-.732 17.28-5.71 17.28-5.71s.147 2.195-2.05 6.59c-2.197 4.392-5.418 10.25-11.13 14.936-5.71 4.686-12.594 8.347-19.33 10.397-6.737 2.05-15.377 3.222-20.356 2.636-4.98-.585-10.104-1.317-16.548-4.685-6.443-3.368-11.862-5.71-16.695-11.276-4.832-5.566-8.786-10.692-9.372-14.792-.585-4.1-.145-8.494-.292-8.494z" fill="#ef9232" fill-rule="evenodd"/><path d="M48.64 96.49v16.108M51.65 98.1v17.867M54.662 98.833v19.623M57.674 100.004v20.136M60.686 100.517v21.38M45.627 95.172v14.424M42.615 93.195v12.3M63.698 100.517V123.8M66.71 100.517v24.75M69.722 99.345v27.532M72.734 96.416v31.632M126.947 98.027v14.57M123.935 98.98v16.987M120.923 99.93v18.526M117.91 100.444v19.696M114.9 101.103v20.794M129.96 97.222v12.374M132.97 96.123v9.373M111.888 100.883V123.8M108.876 100.517v24.75M105.864 99.345v27.532M102.852 98.1v29.948" fill="none" stroke="#000" stroke-width=".6"/><path d="M88.563 61.594l-7.626 7.625 2.188 2.186L88.563 66 94 71.406l2.188-2.187-7.626-7.626z" fill="#ffcb05" stroke="#000" stroke-linecap="square" stroke-linejoin="bevel"/><path d="M123.02 53.82l3.002-.62c1.527.596 3.077 1.14 4.64 1.628.688.376 1.227.966 1.87 1.41.715.498 1.29 1.197 1.655 1.986.068.61.733 1.436.05 1.904-.582.387-.946 1.223-1.628 1.367-1.275.05-2.55.195-3.823.16-1.138-.185-2.288-.297-3.43-.422-.583-.204-1.41-.237-1.828-.582l-.51-6.83zM150.874 34.043c.793-.83 1.363-1.924 2.313-2.572.742-.274 1.23-.89 1.75-1.447.757-.6.858-1.662 1.505-2.322.505-.79 1.51-.306 1.465.55.065.847.708 1.42 1.175 2.068.482.723 1.092 1.333 1.835 1.784.856.53 1.073 1.774.67 2.66-.177 1.08-1.904.842-1.966 2.103-.293.99.218 2.05.056 3.08-.66.432-1.43.75-1.866 1.45-.732.993-1.763 1.67-2.753 2.373-.778.565-1.18 1.38-1.057 2.34-.393.852-1.303 1.66-2.01 2.214-.77-.124-1.744.138-2.355-.412.004-1.282-.023-2.585-.124-3.873-.272-1.123-.964-2.19-.882-3.366l.28-5.488 1.966-1.14z" fill="#ffcb05" fill-rule="evenodd" stroke="#000"/><path d="M152.082 39.377c.5-.512 1.006-1.02 1.58-1.452.34-.29.655-.608 1-.892.287-.047.675.134.862-.176.5-.6.966-1.227 1.445-1.844.27.228.23.6.15.904-.048.36-.425.475-.664.68-.338.2-.646.45-.566.887.026.51-.57.377-.876.55-.4.218-.788.477-1.07.84-.482.556-.944 1.127-1.395 1.706-.308.132-.653.133-.98.185-.51.046-1.026.042-1.54.076-.02-.297-.335-.818.185-.84.622-.21 1.244-.416 1.867-.623z" fill-rule="evenodd"/><path d="M49.083 91.307c2.415-1.544 4.94-3.193 7.86-3.494 1.687.017 3.37.2 5.06.198 1.274-.036 2.48.375 3.63.88l11.098 4.28-4.14 6.42-21.643-3.83c-.62-1.485-1.242-2.97-1.864-4.453z" fill="#ffcb05" fill-rule="evenodd" stroke="#000"/><path d="M147.47 101.542c1.455-.47 2.588-2.222 4.3-1.573 1.564.21 2.578 2.52 4.246 1.675 1.21-.898 2.92-1.027 4.23-.296 1.135 1.038 2.357 2.098 4.024 1.96 1.465-.087 2.497 1.28 2.618 2.627.506 1.312-.195 2.62-1.243 3.404-.922 1.287-2.502 1.65-3.982 1.33-1.5-.357-2.686.71-3.684 1.66-1.17 1.087-3.06.89-4.14-.224-.914-1.133-3.166-1.124-3.46.52-.117 1.484 1.178 3.123.12 4.482-1.077.902-2.226 1.73-3.235 2.674-1.36.554-2.816-.22-3.605-1.346-.597-1.365-2.107-1.495-3.006-2.593-.713-1.438-2.263-2.224-2.936-3.65.082-1.262 1.122-2.322 1.585-3.507 1.465-2.814 2.89-5.65 4.358-8.462 1.182.82 2.537 1.707 4.045 1.45l-.01-.03-.226-.102z" fill="#ffdb07" fill-rule="evenodd" stroke="#000"/><path d="M145.126 105.203c.67-.19 1.33-.412 2.007-.582 1.21.154 2.425.346 3.648.3.656-.128.194-1.19.824-1.288.673.333-.06 1.292.355 1.812.558.422 1.3.135 1.933.31.625.06 1.25.092 1.878.094.238-.167.538-1.142.71-.412.307.75 1.25.445 1.876.554.454.077 1.276-.113 1.447.278-.376.58-1.213.23-1.792.362-.502-.046-1.115.287-.862.844-.355.653-1.024-.14-1.01-.584-.524-.483-1.29-.23-1.926-.347-.707-.056-1.414-.14-2.124-.133-.524.432-1.373.454-1.86-.045-.416-.278-1.337-.673-1.492.07.235.457-.458 1.418-.71.66.02-.623-.448-1.26-1.104-.998-.706-.04-1.23-.54-1.796-.894zM150.72 112.483c-.868-.35-1.74-.69-2.603-1.046-.618-.503-1.333-.917-1.794-1.586-.243-.295-.487-.59-.73-.888l-1.087-.62c-.318-.007-.206.425.052.415.443.31.933.59 1.224 1.063.588.765 1.22 1.495 1.84 2.23.353.48.978.58 1.48.835l1.358.582c.086-.328.172-.656.26-.984z" fill-rule="evenodd"/><path d="M26.56 66.3c.39 1.695 1.187 3.26 2.158 4.694 1.054 1.783 2.098 3.662 3.842 4.867.59.5 1.357.9 1.912 1.36l-2.32 10.41c-1.708-1.535-3.417-3.07-5.125-4.607-.55-2.436-1.184-4.867-1.446-7.354.01-2.21-.084-4.43.134-6.634.198-.936.567-1.825.847-2.737z" fill="#ffcb05" fill-rule="evenodd" stroke="#000"/><path d="M31.635 80.848s-1.605-.518-2.175-1.71c-.57-1.19-1.14-4.09-1.14-4.09s1.09 2.486 1.762 3.418c.673.932 2.174 1.243 2.174 1.243l-.62 1.138z" fill-rule="evenodd"/><path d="M32.62 147.742c-1.57.23-2.274.422-3.004.725-1.243 1.036-1.657 1.14-1.657 2.796 0 1.657.102 3.83 1.45 3.935 1.345.103 3.726 0 5.694-.932 1.967-.932 8.284-6.213 9.423-6.213 1.14 0 1.967 0 2.382.828.413.83.206 1.45 1.138 2.59.932 1.14 2.692.828 4.245 1.14 1.554.31 2.07 1.656 3.52 1.863 1.45.207 1.658 1.036 2.072 1.45.414.414 1.243 1.14 2.796.725 1.554-.415 2.797-3.003 2.693-4.97-.103-1.968-.62-2.693-1.346-3.418-.725-.725-1.45-1.14-.828-1.968.62-.828 1.034-1.035 2.07-.414 1.035.622.62 1.968 1.657 2.278 1.035.31 3.313.932 4.452.415 1.138-.517 3.106-.93 3.83-.93.726 0 5.178-4.868 5.178-4.868l-1.967-3.417s-.103-.622-1.863-1.14c-1.76-.517-4.04-.517-4.66-.517-.62 0-1.035 1.14-1.657.31-.62-.828.414-1.242-.725-1.45-1.14-.206-2.485.31-3.313.83-.83.517-2.175 1.345-4.246 1.345-2.07 0-1.864-.31-1.864-.31s.932-1.036 1.553-1.45c.622-.414 2.693-.725 4.246-.62 1.554.102 2.486-.726 2.383-2.176-.104-1.45-1.243-2.692-1.864-3.417-.622-.725-2.383-.932-3.315-.725-.932.207-2.485 1.346-2.9 2.382-.413 1.035-2.588 1.346-3.727 1.967-1.14.62-3.728 2.59-3.728 2.59s.518-.312 1.553-1.762c1.036-1.45 2.382-3.106 3.107-4.452.725-1.346.103-2.175-.104-3.832-.207-1.656-2.38-4.142-2.796-4.556-.414-.414-3.003-1.14-3.417-.207-.414.932-.725 2.382-1.035 3.624-.31 1.242-.83 2.174-1.554 3.106-.724.932-1.967 4.038-1.967 4.038s.518-1.035.62-2.174c.105-1.14-.102-2.485-.516-3.935-.414-1.45-1.45-2.693-3.106-4.142-1.657-1.45-3.314-2.693-4.556-3.107-1.243-.414-1.968.31-2.382 1.14-.414.828 0 1.967.104 3.002.103 1.036-.83 2.175-.83 3.417 0 1.243.52 2.175.52 2.175s-.933-.518-1.968-.725c-1.036-.207-1.864.207-3.003-.207-1.14-.414-1.97-1.864-2.9-2.07-.933-.208-2.28 1.035-2.9 2.38-.622 1.347-.518 3.107.414 4.04.932.93 1.657.413 3.21 1.345 1.553.932-.31 1.76 1.45 2.59 1.76.828 2.38.103 3.106.93.725.83.518 1.45 1.553 2.486 1.036 1.035 1.347-.31 2.59-.208 1.242.104.31.725.31 1.554 0 .828 1.967 1.035 3.21.724 1.243-.31 1.864-.31 3.003 1.243 1.14 1.553 0 1.45-.828 2.485-.83 1.036-4.97 1.14-9.01 1.864z" fill="#ffd304" fill-rule="evenodd" stroke="#000"/><path d="M36.864 135.212c-1.398-.466-3.003-.673-3.624-1.19-.62-.518-1.398-1.295-1.036-1.657.363-.363 1.14.26 2.07.725.933.466 2.85.983 2.85.983s.258-1.605-.467-2.278c-.725-.673-1.45-1.242-1.398-1.553.05-.31 1.345.26 1.397.57.052.31.83 1.14.88 1.605.052.466.466 2.07.622 2.33.154.258 1.552 1.553 1.552 1.915 0 .363-.31.518-.777.363-.466-.156-.57-1.19-1.087-1.45-.518-.26-.88-.26-.984-.363zM40.074 125.945c0 1.656 0 3.054.26 3.78.258.724.93 2.38.93 2.847 0 .466.778 1.087.726 1.45-.052.362-.155.932-.57.414-.414-.518-.57-2.07-.983-2.693-.414-.62-1.14-3.002-1.864-3.986-.725-.984-1.657-1.605-1.812-2.123-.155-.518.26-1.087.518-.828.26.258.674 1.294 1.14.724.465-.57.57-1.346 1.035-1.242.466.103.57.362.673.673.104.312-.052 1.036-.052.985zM48.462 131.692c.828-1.036 1.76-2.33 1.916-2.9.155-.57.207-1.035.414-.88.207.155.31.31 0 1.243-.31.932-.777 2.33-1.346 3.21-.57.88-1.502 1.553-1.71 1.242-.206-.31-.102-.673.156-1.19.26-.518.674-.674.57-.725zM67.63 143.757c-1.49-.725-2.746-1.336-3.51-1.42-.766-.084-2.55-.203-2.97-.407-.42-.204-1.317.223-1.62.018-.304-.205-.77-.547-.124-.693.647-.146 2.112.393 2.852.292.74-.1 3.199.29 4.4.067 1.202-.222 2.168-.788 2.702-.702.533.087.864.71.518.828-.346.12-1.458.04-1.15.708.31.668.962 1.1.665 1.474-.297.374-.575.354-.9.31-.324-.04-.908-.498-.862-.475zM48.048 143.03c.828 1.036 1.398.83 1.915 1.502.518.673 1.502 1.916 2.796 2.278 1.294.363 2.588 2.33 3.21 2.744.62.415 1.346.88 1.553.83.207-.053-1.19-.83-1.554-1.347-.363-.518-.467-1.657-1.347-2.175-.88-.518-2.64-.984-3.21-1.76-.57-.777-1.14-2.02-1.657-2.434-.517-.414-.517.207-.88.207-.362 0-.57-.466-.828-.26-.26.208.052.57 0 .416z" fill-rule="evenodd"/><path d="M35.363 87.372s.673.26 1.035 1.242c.363.984.363 6.73.31 8.077-.05 1.348-.206 2.953-1.035 3.833-.828.88-2.95 2.174-2.95 2.174" fill="none" stroke="#000"/><path d="M4.76 74.23c5.83 2.86 11.328 6.55 15.697 11.395 1.826 1.83 3.205 4.093 5.436 5.488 1.814 1.19 4.193 1.486 5.633 3.24 1.733 1.154.168.834-1.02.682-1.715-.11-3.41-.294-4.906-1.208-1.354-.93-2.7-1.863-4.3-2.345-2.99-1.458-6.4-1.123-9.618-.96-3.366.59-6.598 1.74-9.778 2.965 1.305 1.507 2.98 2.74 4.79 3.543 1.618.727 3.348 1.004 5.095 1.217-2.087.73-4.214 1.53-5.685 3.267-1.54 1.21-2.137 3.12-3.176 4.714.832 1.203 2.556.86 3.818 1.32 1.612.06 3.327.246 4.9-.112 2.67-.644 4.882-2.9 7.758-2.6 2.013-.028 4.183.294 5.93-.95 1.446-.557-.853 1.064-1.08 1.698-1.74 2.38-2.74 5.203-3.46 8.04-.047 2.226-.342 4.632.95 6.59-.187-1.173.115-2.186.97-3.02 1.91-2.37 4.343-4.288 6.5-6.437 1.227-1.397 3.154-2.29 3.64-4.2.33-.75-.533 1.81-.687 2.404-1.1 3.44-2.62 6.84-2.574 10.518-.648 1.67.927 1.143 1.7.354 1.87-1.806 3.65-3.73 5.974-4.964.687-1.24 1.794-2.355 1.506-3.882.19-6.698.382-13.396.573-20.093-4.625-3.838-9.093-7.914-14.105-11.235-2.823-1.212-5.472-2.922-8.558-3.373-3.323-.83-6.655-1.61-10.08-1.842-.617-.07-1.232-.142-1.848-.213z" fill="#ffb805" fill-rule="evenodd" stroke="#000"/><path d="M8.957 94.413c1.313-.17 2.624-.36 3.938-.517 1.79.006 3.578-.026 5.365.046.76.033 1.523.017 2.28.085l2.034.23c-.27.17-.527.374-.804.52-1.334.085-2.666.202-4 .266-1.222.027-2.444.075-3.665.09-1.24-.09-2.485-.162-3.724-.262l-1.423-.457zM13.67 101.455c.67-.45 1.362-.875 2.12-1.164.55-.318 1.2-.14 1.8-.174 1.715.043 3.23-.11 4.94-.273.716-.326 1.536-.682 2.314-.89.79-.315 1.65-.494 2.352-.992l1.436-.906c-.69.61-1.335 1.28-2.053 1.852-.773.39-1.64.628-2.287 1.227-.42.41-.944.638-1.502.797-.536.265-1.132.105-1.704.113-1.593-.054-3.188-.138-4.78-.14-.888.14-1.77.31-2.637.552zM26.975 106.89s.104-1.24.932-2.432c.828-1.19 3.262-3.417 3.262-3.417l1.086.467s-2.278 1.708-3.106 2.64c-.83.932-2.123 2.9-2.175 2.744zM33.24 113s1.45-1.035 1.605-1.708c.155-.673.62-3.572.62-3.572l1.555 2.433s-.518 1.346-1.398 2.02c-.88.672-2.382.88-2.382.828zM32.308 88.925s-1.605-1.553-3.21-2.537-4.815-2.33-4.815-2.33 2.433 2.02 3.676 2.9c1.24.88 4.14 2.9 4.14 2.9l.208-.933zM44.153 87.41c.845.606 1.69 1.337 2.766 1.462 1.068.24 2.17.24 3.26.24.49.17.564.742.76 1.15.108.258.6.798.133.923-1.45-.075-2.89-.336-4.273-.773-.773-.2-1.543-.413-2.298-.673-.587-.554-1.293-.988-1.778-1.644-.324-.313-.917-.326-1.07-.81-.072-.5.648-.935 1.02-.544.278.394.746.636 1.23.61.083.014.167.032.25.058zM46.715 118.017s4.54 5.125 10.105 8.347c5.565 3.222 6.883 3.954 16.548 6.736 9.665 2.783 20.502 2.344 26.8.88 6.296-1.465 15.083-4.248 19.183-6.884 4.102-2.636 11.863-8.933 11.863-8.933l-10.836 7.176s-8.055 3.953-11.57 4.978c-3.514 1.025-15.815 3.66-15.815 3.66s-12.155 0-16.402-1.024c-4.247-1.025-13.034-4.1-17.134-6.297s-12.448-8.787-12.74-8.64z" fill-rule="evenodd"/><path d="M137.412 152.92c-.703-1.605-1.008-3.934-2.97-4.463-2.356-.306-2.646 2.665-4.32 3.697-2.51 2.207-5.265 4.173-8.337 5.515-2.744.826-5.79.487-8.345 2.007-1.1.712-4.272 2.723-2.53.105 1.255-2.876 2.275-6.032 4.72-8.145 1.084-1.815 4.54-3.423 5.27-3.752-2.8.48-6.02.894-8.415-.993-1.968-1.11-3.925-2.247-5.93-3.292 1.242-1.68 2.942-2.975 4.924-3.63 1.935-1.038-2.644-1.264-3.217-2.686-1.475-1.177-3.918-3.68-.732-4.084l10.31-4.718c2.33 2.093 4.31 4.566 6.41 6.828 1.778.708-.92-2.87-.6-4.032-.172-2.41-.1-4.832-.113-7.25 1.766-1.028 3.376-1.46 4.31.738 1.805 2.232 3.593 4.487 5.113 6.926-.16-4.445-.08-8.954.786-13.324 1.29-2.98 2.582-5.96 3.874-8.94 1.61 2.473 1.905 5.53 2.69 8.325.365 3.08.867 6.21.265 9.297.11 1.58-1.344 4.853-.408 5.288 3.032-.953 5.09-3.612 7.022-5.987.598-.842 2.252-3.953 1.78-1.11.086 2.96-.125 6.08-1.673 8.678-1.764 2.367-3.305 4.946-5.674 6.785-1.366 1.573-4.59 3.58-3.134 5.936 2.172 2.604 3.66 5.736 5.55 8.558 1.35 2.06.93 4.412-1.565 5.087-2.494.768-3.57-2.22-4.215-4.07-.367-1.074-.56-2.198-.848-3.295z" fill="#ffd304" fill-rule="evenodd" stroke="#000"/><path d="M120.534 148s2.588-1.345 5.022-2.018c2.433-.673 6.11-1.14 6.11-1.14" fill="none" stroke="#000"/><path d="M117.065 155.767c.578-.884 1.14-1.78 1.728-2.658.738-.647 1.44-1.342 2.202-1.957 1.09-.625 2.145-1.323 3.305-1.817.656-.3 1.292-.656 2.006-.797.475-.13.95-.256 1.424-.384-1.43.835-2.875 1.645-4.258 2.557-1.417.87-2.77 1.836-4.115 2.813l-2.292 2.24zM112.094 143.497c1.395-.463 2.782-1 4.25-1.176 1.072-.243 2.174-.257 3.267-.228 1.553-.006 3.105.03 4.65.162.386.37-.184.89-.572.612-1.827-.04-3.658-.194-5.484-.08-2.04.217-4.074.465-6.11.71zM111.732 132.934c1.886 1.636 3.74 3.322 5.814 4.72.762.62 1.597 1.173 2.555 1.428 1.384.506 2.74 1.114 4.167 1.482.26.006.98.383.956.04-.712-.66-1.72-.793-2.562-1.224-1.83-.753-3.73-1.443-5.306-2.674-1.23-.864-2.432-1.776-3.48-2.857-.585-.38-.996-1.4-1.793-.993-.115.026-.232.05-.348.077zM127.213 129.155c-.293 1.346-.428 2.737-.28 4.11-.033.525.26 1.002.626 1.355 1.043 1.283 2.218 2.46 3.17 3.816.23.104.385.86.624.553-.04-.68-.55-1.192-.753-1.817-.537-1.095-1.367-2.02-1.855-3.144-.35-.578-.89-1.12-.858-1.844-.063-.697-.132-1.398-.105-2.1l-.57-.93zM135.497 130.863c-.276-1.735-.317-3.508-.142-5.256.132-.966.52-1.87.802-2.796.17-.484.38-.96.664-1.39-.115-.478.73-.263.395.103.18 2.78.25 5.6-.33 8.34-.1.656-.14 1.385-.604 1.904-.532.194-.424-.592-.712-.823-.023-.028-.047-.054-.07-.08zM137.205 140.338c.744-.66 1.495-1.314 2.235-1.98l2.477-3.767c-.39.467-.747.965-1.163 1.41l-1.995 1.646-1.658.673c.034.672.07 1.345.103 2.018z" fill-rule="evenodd"/><path d="M155.01 78.843c1.967-.054 2.325-2.733 4.217-2.96 1.46-.328 2.69 3.126 3.857.897.85-1.43 3.078-2.27 4.39-.976.784.763 1.633 2.046 2.908 1.593 1.994-.562 3.836 1.767 3.066 3.618-.5 1.448-2.105 2.373-3.603 2.154-1.418.292-.96 2.21.39 2.066 1.312.875 1.664 2.887 3.366 3.224 1.138 1.148.92 3.384-.178 4.467-1.744 1.376-4.135 1.725-5.653 3.42-1.227 1.326-3.605 1.21-5.058.267-1.055-.87-2.154-2.61-3.744-1.934-1.262.586-1.96 2.392-3.564 2.112-1.272-.658-2.853-1.678-4.203-.53-2.022.984-4.618.397-6.08-1.283-.937-1.32.385-2.735.455-4.132 1.01-4.08 2.024-8.157 3.03-12.236 1.26-1.057 3.04-.172 4.505-.442.66.14 1.256.48 1.9.673z" fill="#ffdb07" fill-rule="evenodd" stroke="#000"/><path d="M151.203 87.41c1.437-.434 2.91-.79 4.25-1.49.526-.202 1.09-.427 1.397-.93.77-.8 1.44-1.694 1.964-2.675.12-.3.738-.966.95-.614-.284.484-.525.982-.592 1.547-.147.488.1.73.478.345 1.02-.6 2.045-1.192 3.05-1.82l2.195.293c-.578.71-1.617.568-2.322 1.08-.778.44-1.625.81-2.21 1.514-.387.51-.994.7-1.598.796-.7.126-1.385.347-1.988.733-.794.42-1.57.874-2.32 1.373-.656.137-1.338.06-2.002.02-.418-.05-.833-.127-1.252-.173zM149.592 90.56c2.782.693 5.613 1.62 8.52 1.264 3.86-.328 7.682-1.002 11.543-1.34.73-.44-.483-.882-.81-.455-2.656.37-5.354.53-7.952 1.23-.78.01-2.197-.058-2.25-1.046.357-.712 1.056-1.32 1.826-1.543 2.332-.433 4.774-.462 7.002-1.358 1.174-.474 2.177-1.747 1.895-3.062-.802-.805-1.148.897-1.482 1.417-.57.986-1.636 1.722-2.803 1.668-1.688.174-3.382.28-5.07.45-1.844.597-2.85 2.6-4.79 3.013-1.148.32-2.38.02-3.364-.605-.73-.288-1.784-.404-2.266.366zM50.926 69.873c.33.99 1.245 1.1 1.245 1.1s.367-.074.733.072.366.77.622.88c.256.108.366-.038.33-.367-.037-.33 0-1.1-.44-1.318-.44-.22-.586.11-1.098-.184-.513-.292-.622-.915-.99-.805-.365.11-.4.697-.4.623z" fill-rule="evenodd"/><path d="M42.456 59.827c-5.137-2-11.388-1.828-15.9 1.57-1.603 1.042-1.887 3.278.528 2.906 2.866.69 5.083 3 8.1 3.218 2.474.646 4.965-.002 7.208-1.093 2.61-.54 4.72-3.537 7.63-2.36 3.222 2.132 6.664 4.093 10.505 4.854 2.12.28 5.06 1.798 6.692 1.157-.118-2.605-3.916-2.173-5.594-3.41-2.323-.967-6.228-2.397-5.945-5.37 1.225-2.017 3.145-3.527 4.37-5.57 2.77-3.69 2.853-8.5 2.687-12.91-.118-1.926.475-4.756-1.36-5.9-1.888 2.153-3.143 4.99-4.398 7.61-.877 2.152-2.213-1.725-2.175-2.98-.208-3.192-.265-6.393-.5-9.58-.472-1.495-1 2.026-1.69 2.603-.77.943-1.586 3.854-2.152 3.927.16-3.64.808-7.318.24-10.95-1.497-2.7-3.377-5.39-6.028-7.033-.928-1.08-2.37-1.002-1.468.683.58 3.328.4 6.762-.337 10.05-2.657-3.64-4.713-7.665-7.085-11.488-1.01 4.082-.042 8.34.464 12.436.628 3.25.865 6.618 1.933 9.76.746 1.94 1.658 3.815 2.41 5.756-4.904-2.893-9.923-5.795-15.493-7.188 3.008 6.78 7.64 13.004 14.017 16.942 1.117.78 2.223 1.578 3.34 2.36z" fill="#ffb805" fill-rule="evenodd" stroke="#000"/><path d="M40.492 46.7l3.514 4.83 3.588 3.882 1.465 1.977-3.37-3.15-4.1-4.54-2.27-2.49 1.172-.51zM34.268 48.163c1.076 1.26 2.12 2.55 3.217 3.79 1.044.814 2.048 1.683 3.122 2.46.87.556 1.715 1.165 2.605 1.684l1.82.56c-1.93-1.767-3.8-3.604-5.828-5.264-.918-.757-1.846-1.503-2.79-2.228l-2.146-1.002zM32.218 62.66c.997.24 1.99.517 2.99.735.89.02 1.778.054 2.667.068.78-.163 1.573-.28 2.346-.473.604-.23 1.207-.463 1.81-.695-1.155-.17-2.307-.348-3.462-.512-1.015.042-2.034.04-3.04.19-.696.096-1.41.115-2.078.343l-1.232.345zM42.03 36.374c.225 1.4.432 2.802.67 4.2.64 1.418 1.232 2.864 2.016 4.213.595 1.055 1.117 2.146 1.594 3.258.145.302.378.89.47 1.015-.23-1.25-.392-2.513-.672-3.752-.234-.86-.412-1.74-.688-2.586-1.136-2.113-2.202-4.263-3.39-6.348zM42.688 31.615l2.636 4.393 1.83 2.93.88 2.123.22-1.464-.44-7.615-.513-1.39.22 3.588-.22 2.636-1.683-2.27-1.538-1.977-.293-1.39-.66-1.466-.44 1.905zM50.222 38.08l-.31 3.108c-.3.456-.47 1.09-1.062 1.25-.547.364-.39 1.11-.602 1.65-.037.684.756 1.074.725 1.767.24 1.82.462 3.646.503 5.482.132.494.56-.355.453-.617.018-1.055.05-2.11-.03-3.165-.054-1.048-.16-2.096-.176-3.146.142-.774.41-1.526.75-2.24.39-.665.355-1.458.486-2.196.078-.856-.012-1.715-.014-2.57-.23-.15-.505.58-.724.677zM53.69 44.502c.11 1.502.364 3 .293 4.51-.02.694 0 1.396-.054 2.087-.173.567-.095 1.263-.58 1.692-.29.45-.39 1.004-.46 1.528-.076.696-.115 1.394-.182 2.09-.527-.307-.358-.99-.414-1.494-.064-1.515-.162-3.03-.194-4.545.138-.682.154-1.398.382-2.058.245-.463.51-.936.54-1.47.112-.56.138-1.144.338-1.68l.33-.66zM55.762 45.33c.225.534.73.996.725 1.594-.015 1.927.034 3.855-.028 5.78-.064.864-.11 1.73-.192 2.593-.514 1.096-1.028 2.192-1.54 3.288l2.07-3.262c.232-1.095.44-2.195.687-3.288.71-1.29 1.453-2.565 2.038-3.92.09-.207.378-.778.337-.748-.626.967-1.145 2.014-1.938 2.862-.18.16-.542.826-.452.242-.03-1.354.113-2.73-.196-4.06-.21-.43-.315-1.075-.59-1.373l-.922.29zM120.047 81.626c1.64-.204 3.29-.333 4.912-.656.342.023.978-.212 1.086.258-.08.402-.455.67-.62 1.042-.13.323-.444.73-.7.262-.27-.408-.75-.455-1.195-.486l-3.483-.42zM118.877 101.662c.64-1.042 1.29-2.078 1.92-3.124.305-1.143.7-2.263.924-3.427 0-.507-.453-.888-.905-1.03-.425-.242.124-.833.437-.456.26.22.597.332.757.642.238.29.538.6.494 1.007.032.613-.053 1.223-.172 1.822-.133.797-.5 1.534-.896 2.23-.38.587-.843 1.114-1.242 1.686-.185.297-.37.707-.762.743-.19 0-.366-.092-.555-.09zM124.158 100.316c1.77-1.105 3.56-2.177 5.318-3.302 1.405-1.502 2.817-3.002 4.048-4.653.557-.553.826-1.277 1.05-2.013.423-1.224.932-2.434 1.034-3.74.213-1.49.406-2.996.965-4.407.538-1.617.687-3.342.635-5.036.744.452.505 1.426.425 2.184-.08 1.91-.705 3.732-.938 5.62-.215 1.642-.54 3.264-1.076 4.83-.413 1.183-.797 2.42-1.672 3.352-1.405 1.812-2.656 3.736-4.043 5.56l-5.747 1.606zM144.125 86.594c-.765-.027-.856.746-1.174 1.24-.45.6-.957 1.154-1.435 1.73-1.468 1.626-3.012 3.183-4.537 4.753-1.205 1.01-2.517 1.878-3.76 2.84.878-.244 1.766-.455 2.642-.696.652-.288 1.186-.78 1.77-1.177 1.297-1.062 2.392-2.338 3.526-3.564.26.863.072 1.786.204 2.67.088.934-.1 1.93.294 2.81.34.318.4-.642.368-.884-.05-1.856-.1-3.71-.147-5.566.417-.63.736-1.338 1.28-1.875.13 1.297.176 2.603.19 3.906.246.365.244-.753.3-1.06.057-1.156.106-2.313.136-3.47.542-.41 1.458-.255 1.762-.964-.117-.542-.917-.72-1.417-.692z" fill-rule="evenodd"/><path d="M64.823 75.67c-1.003-1-2.068-1.934-3.03-2.973-.55-1.53-1.37-3.014-1.38-4.68-.32-2.255-.402-4.534-.29-6.806-.034-1.21.06-2.44.546-3.563.71-2.01 1.874-3.833 3.28-5.427 1.084-.002 1.282 1.45 2.086 1.98.71 1.072.935 2.365 1.41 3.543.572 1.51.46 3.142.604 4.72.158 2.086-.125 4.16-.266 6.236-.145 1.508-.92 2.85-1.508 4.218-.45.935-.942 1.85-1.453 2.753z" fill="#ffb805" fill-rule="evenodd" stroke="#000"/><path d="M63.556 57.755c-.217 1.063-.376 2.138-.42 3.223-.118 1.136-.207 2.28-.098 3.422.092 1.72.115 3.447.3 5.16l.292 2.034c.082-2.118.108-4.24.263-6.355.176-1.172.423-2.334.54-3.512-.012-.75.037-1.504-.027-2.254-.197-.583-.17-1.325-.785-1.664l-.064-.055z" fill-rule="evenodd"/><path d="M67.95 84.335c-1.772-.976-3.485-2.16-5.46-2.68-1.335-.164-2.692-.558-4.033-.217-1.186.068-2.358.335-3.327 1.05-1.29.685-2.548 1.452-3.632 2.44-.443.292-1.55 1.016-.407 1.055 1.554.35 3.11.735 4.545 1.44 2.685 1.132 5.08 2.824 7.576 4.307.843.542 1.69 1.08 2.67 1.34 1.07.3 2.102.872 3.245.76 1.018-.18 2.314.168 3.164-.308-1.43-2.89-2.76-5.855-4.147-8.775-.064-.138-.13-.275-.193-.412z" fill="#e8b80b" fill-rule="evenodd" stroke="#000"/><path d="M59.163 84.92c.536-.195 1.086-.444 1.67-.37.85-.042 1.682.164 2.497.368.667.24 1.27.624 1.912.917.435.255.954.395 1.313.758l1.907 1.842c.316.718.65 1.427.955 2.15.036.516.285 1.12-.1 1.566-.39.118-.275-.645-.48-.876-.282-.743-.73-1.41-1.16-2.074-.427-.542-.907-1.043-1.358-1.566-.49-.452-1.073-.786-1.635-1.137-.676-.385-1.392-.692-2.09-1.032-.56-.23-1.17-.29-1.76-.41-.553-.096-1.112-.118-1.672-.134z" fill-rule="evenodd"/><path d="M66.778 87.703c-.563-2.634-1.58-5.23-1.34-7.972-.052-3.984-.308-7.99.27-11.95.322-3.028.513-6.262 2.18-8.902 1.32-1.698 2.453-3.64 4.367-4.758.464-.48 1.73-1.316.795-.077-1.466 2.602-2.646 5.488-2.655 8.516-.133 1.776 0 3.582.42 5.307.583 1.594 1.635 3.025 1.8 4.758.602 2.454 1.462 4.927 1.15 7.493l-.25 15.64c-2.246-2.685-4.49-5.37-6.737-8.055z" fill="#ffcb05" fill-rule="evenodd" stroke="#000"/><path d="M73.44 85.36c-.733-.673-1.49-1.32-2.21-2.008-.632-1.334-1.375-2.628-1.755-4.066-.37-1.022-.642-2.076-.785-3.154l-.374-2.122c.187 1.73.26 3.475.53 5.194.33 1.627.57 3.283 1.172 4.84.32 1.064.663 2.126 1.21 3.097.6 1.087 1.514 1.946 2.264 2.922.324.467.078-.542.124-.793l-.175-3.91z" fill-rule="evenodd"/><path d="M134.874 57.682c-2.03.317-3.877-1.582-3.813-3.57 0-.974-.198-2.048-1.055-2.646-1.34-1.3-1.916-3.117-2.563-4.812-1.12-1.253-.764-2.736-.255-4.14.358-1.438.467-2.94-.488-4.163-.625-1.453.596-2.88.39-4.384.493-1.31-1.43-1.957-.903-3.15.59-1.458 2.156-1.84 3.478-2.408 1.123-.284 2.287.115 3.33.506 1.053.76.603 2.183.69 3.28-.235 1.363.663 2.68 1.82 3.317 1.293.864.72 2.508.837 3.767.444 1.254 1.506 2.294 1.273 3.743-.036 1.935 1.256 3.748.775 5.71-.596 1.224-.63 2.59-.92 3.898-.708 1.574-1.658 3.04-2.38 4.614-.073.146-.145.293-.216.44z" fill="#ffcb05" fill-rule="evenodd" stroke="#000"/><path d="M135.68 48.676c.76-.463.47.903.088 1.153-.28.563-1.025.964-.88 1.656l.06 2.022c-.384.387-.66.212-.676-.306-.293-.514.06-1.306-.42-1.674-.367-.438-1.008-.467-1.394-.695-.143-.718.803-.265 1.202-.435.735.125.206-.86.1-1.237-.583-.713-1.338-1.272-2.14-1.718-.36-.164.245-.926.62-.597.687.262 1.077-.75.9-1.326-.06-.62-.333-1.192-.506-1.785-.298-.622-1.12-.754-1.57-1.032-.304-.617.303-.587.735-.544.34-.558.43-1.183.37-1.827 0-.574-.412-1.15-.912-1.43-.443-.3-.795-.737-1.315-.91-.25-.606.29-1.284.96-1.036.563-.188 1.117-.437 1.702-.583.48.497.065.882-.293 1.283-.01.62.834.954 1.196 1.308.654-.04.437.923-.126.91-.57.425-.342 1.234-.465 1.855-.02.7.23 1.325.995 1.43.487.218 1.402-.268 1.214.62-.235.518-1.174.278-1.11 1.047-.038.66.21 1.363 1.003 1.23.767-.145 1.304.854.384 1.036-.506.233.028 1.105-.683 1.314-.25.197.042 1.198.43.664.182-.123.35-.266.53-.394z" fill-rule="evenodd"/><path d="M137.29 51.824c1.193-1.863 2.79-3.55 3.262-5.776.234-1.295.44-2.64.207-3.953-.942-1.03-1.898-2.074-1.77-3.58.06-1.353 1.99-2.426.72-3.893-1.013-1.465-.374-3.25.94-4.288 1.19-.77 1.49-1.918 1.782-3.213.274-1.49 2.16-1.137 2.935-2.222.986-.698 1.233-2.327 2.735-1.92 1.33-.392 2.703.668 2.81 2.013.076 1.24-.438 2.427-.734 3.59-.267 1.45 1.878 1.726 1.685 3.268.138 1.272-.694 2.353-1.246 3.428-.15 1.518.27 3.02.21 4.503.337 1.842-2.41 2.186-2.053 4.13-.234 1.507-2.14 1.266-2.843 2.433-1.103 1.097-.09 3.312-1.577 4.016-1.662.922-2.78 2.488-3.915 3.96-1.167.84-1.895 2.723-3.394 2.776-1.533.407-2.53-1.486-1.94-2.788.37-1.01 1.51-1.647 2.187-2.484z" fill="#ffcb05" fill-rule="evenodd" stroke="#000"/><path d="M142.84 44.758c.465.78 1.08-.415 1.377-.802.265-.553.807-.784 1.378-.897.682.19.78-.82.16-.924-.71-.005-1.02-.635-.83-1.26.138-.962 1.02-1.607 1.174-2.568.11-.595.236-1.25.705-1.67.488-.072 1.154-1.002.367-1.067-.615.2-1.19-.38-.95-.987.04-.7.533-1.245.754-1.89.063-.69.655-.722 1.16-.96.38-.166.97-.775.2-.81-.552-.135-1.394.436-1.214-.488.098-.65-.06-1.38-.632-1.75-.417-.355-1.4-.125-1.22.51.548.208.905.697 1.096 1.285-.16.74.003 1.616-.366 2.265-.353.34-.578.85-1.02 1.067-.53.112-1.263.69-1.05 1.157.677.174 1.305.684 1.15 1.452-.03.524.262 1.19-.364 1.434-.397.347-1.02.666-1.505.31-.335-.426-1.317-.17-.72.366.72.125.986.76 1.224 1.374.3.72-.32 1.245-.59 1.843-.406.52-.39 1.09-.334 1.727.013.427.013.855.05 1.28z" fill-rule="evenodd"/><path d="M129.75 63.247c1.098.45 2.29 2.014 3.84 2.084 2.508-.253 5.023-.482 7.546-.35 1.306.055 2.647-.06 3.932.118 1.335.362 1.427 2.34 3.156 2.063 1.444.423 2.97-.5 3.382-1.903 1.485-.726 3.287.223 4.825-.49 1.048-.723-.36-2.796 1.325-3.12 1.16-.263 3.563.482 3.455-1.403.52-1.466-.914-1.954-2.038-2.34-1.207-.436-2.177-1.376-3.44-1.686-1.027-.143-.095-2.236.53-2.758.965-1.032 2.66-1.416 2.578-3.114.49-1.75-1.65-2.285-2.95-2.183-1.315.287-2.33-.81-3.622-.74-1.49-.182-2.41 1.045-3.38 1.933-1.003.82-2.406-.208-3.5.453-1.545.298-.71 2.64-2.397 2.718-1.084.28-2.463.107-3.292.938-1.143.905-.943 2.542-2.41 3.207-1.404.79-2.813 1.595-4.317 2.18-.307 1.776-2.185 1.383-3.238 2.26-.422.696-.6.92.017 2.134z" fill="#ffcb05" fill-rule="evenodd" stroke="#000"/><path d="M135.963 61.173c-.29 1 1.05.71 1.623.55 1.156-.166 2.29.166 3.435.268 1.044-.134 2.113-.188 3.09-.62.946-.4 2.017-.054 2.966-.466.76-.162 1.51-.367 2.16-.806.75-.222 1.533-.314 2.31-.374.427-.707.825-1.6 1.705-1.81.714-.193 1.034-1.124 1.855-1 .465-.05 1.173-.884.356-1.033-.702-.256-1.24.712-1.804 1.047-.583.842-1.785.493-2.41 1.223-.438.85-1.476.838-2.277 1.117-.778.01-1.37.376-2.008.735-1.26-.01-2.532.06-3.767.31-.77.108-1.313.75-2.105.744-.675.087-1.376-.13-1.136-.934.15-.843.904-1.08 1.594-1.397.618-.706 1.65-.428 2.273-1.034.602-.72 1.723-.5 2.38-1.137.815-.42 1.757-.356 2.633-.538.49-.73 1.373-1.058 2.23-.985.68-.11 1.523-.05 1.92-.722.13-.603.172-2.364-.796-1.468-.712.382-.97 1.368-1.826 1.45-.98.138-1.78.932-2.8.77-.81-.15-1.477.185-2.084.687-.962.43-1.97.767-2.948 1.165-.9.175-1.5.845-2.173 1.413-.8.52-1.492 1.198-2.39 1.54-.65.465-1.318.895-2.002 1.308z" fill-rule="evenodd"/><path d="M103.55 76.81c.7-1.495.837-3.427 2.364-4.367.782-.75 3.014-.586 1.537-1.982-1.598-.742-.958-3.014.72-2.868 1.604.156 3.78.124 3.264-2.135-.326-2.128 2.443-2.935 3.904-2.243 1.105 2.12 2.29 4.22 2.88 6.557.587 2.13 1.854 4.217 1.422 6.49-1.497.993-.514 3.22-2.485 3.866-.644.82-1.247 1.816.265 1.456 2.05.02 3.973-.836 6.002-1.02.855.37 3.02.287 1.52 1.43-.842 1.59-3.05 1.725-3.146 3.776-.232 1.077-1.466 1.944-1.78 2.704 2.4-.167 4.782-.55 7.145-.997 1.01-.993 3.728-2.078 4.264-2.07l-11.926 13.15-18.328-3.728 2.38-18.017z" fill="#ffcd05" fill-rule="evenodd" stroke="#000"/><path d="M107.383 86.026c.55-.058 1.156-.02 1.52-.52.537-.442 1.084-.883 1.444-1.488.633-.946 1.37-1.816 2.19-2.606.546-.412 1.137-.78 1.742-1.074.22-.515-.66-.378-.975-.39-.45.106-1.38.478-1.16-.31-.015-1.4.04-2.8-.034-4.197-.146-.72.047-1.573-.534-2.127-.406-.574-.79-1.18-1.438-1.504-.615-.5-1.41-.633-2.134-.903-.404.32-.672.623-.01.736 1.015.36 1.886 1 2.806 1.542.158.775.503 1.534.383 2.338-.016 1.415-.19 2.82-.398 4.216-.175.22-.388 1.156-.516.487-.217-.394-.287-1.132-.596-1.308-.422.13-.804.283-.475.75.298.6.25 1.254.195 1.904.045.637-.175 1.215-.44 1.78-.214.51-.427 1.02-.64 1.533-.334.324-1.075.43-.932 1.01v.13zM121.103 86.543c-.524.31-1.04.633-1.57.935-.624.1-1.244.243-1.873.312-.506.008-1.014.056-1.52.033-.33-.06-.673-.076-.993-.17l-1.24-.695c-.16.056-.52.083-.196.21.54.333 1.05.718 1.638.96.58.27 1.147.57 1.764.744.364.12.728.242 1.092.364.432-.05.873-.05 1.3-.135l1.185-.33c.006-.323-.103-.66-.004-.974l.418-1.253z" fill-rule="evenodd"/><path d="M117.448 75.402c-.51-.42-1.105-.777-1.56-1.236-.187-.558-.435-1.106-.33-1.71.04-2.825.135-5.65.132-8.477-.504-.705-1.22-1.29-1.432-2.16-.2-.694-.165-1.198-.545-1.795-.004-.897-.46-1.492.13-2.2.24-.316.605-1.112.72-1.45-.356-.772-.74-1.536-.838-2.393-.243-.486.242-.858.417-1.28 1.033-1.5 2.14-2.953 3.16-4.466.862-.986 1.823-1.866 2.925-2.582.456-.123.984-.02 1.468-.054.475.608 1.058 1.15 1.252 1.924.29.644.53 1.302.56 2.014.065.786.24 1.543.56 2.264.28.81 1.184 1.26 1.348 2.13.157.595.603 1.165.35 1.79-.138.747-.23 1.508-.64 2.166-.273.514-.523 1.034-.507 1.63-.174 1.017-.126 2.04-.058 3.065-.006.636.21 1.314-.187 1.876-1.04 2.45-2.44 4.727-3.6 7.116-.4 1.226-.8 2.453-1.202 3.68l-2.122.146z" fill="#f3c409" fill-rule="evenodd" stroke="#000"/><path d="M118.84 57.39c-.85.428.748 1.042.547 1.73.194.762.02 1.556-.088 2.32-.226.53-.24 1.542-.995.885-.56.004-.904-.886-1.192-.884-.248.618.573.958.83 1.442.395.464.79.928 1.19 1.39.2.7.368 1.415.292 2.15.05 2.117-.098 4.23-.22 6.344.786-.495.55-1.49.73-2.27.273-2.194.31-4.408.563-6.604.072-.72.27-1.465.77-2.015.582-.89 1.326-1.652 2.037-2.438-.68-.387-1.04.584-1.54.885-.535.51-1.057 1.038-1.535 1.604-.14-1.073-.218-2.168-.103-3.242.6-1.103 1.08-2.283 1.347-3.514.097-.515 1.12-1.24.567-1.638-.448.033-1.208.91-1-.012.147-.42-.41-1.64-.686-.79-.162.535 0 1.5-.783.92-.506-.505-1.108.098-.538.51.884.236 1.325 1.197 1.214 2.05-.098.495-.113 1.473-.766 1.46-.213-.096-.428-.19-.64-.285z" fill-rule="evenodd"/><path d="M118.566 74.22c1.483-.482 2.927-1.124 4.488-1.313.91-.115 1.662-.68 2.467-1.076.572-.315 1.024-.8 1.583-1.134.856.04 1.825-.428 2.593.007.708.284 1.363.99 2.168.745.753.034 1.314-.41 1.836-.897.723-.334.84-1.022.904-1.74l.323-1.94-1.76-4.35-3.314-1.554c-.915.007-1.847-.08-2.726.242-.65.258-.292 1.374-.666 1.943-.39.568-.686 1.267-1.41 1.46-.66.217-.523 1.095-.79 1.637-.635.465-1.644.57-1.96 1.346-.41.737-.592 1.655-1.296 2.18-.484.713-1.422.72-2.02 1.197-.242.75-1.332 1.478-.962 2.24l.544 1.01z" fill="#f9cc07" fill-rule="evenodd" stroke="#000"/><path d="M122.06 68.3c.64-.072 1.276-.18 1.92-.147.36.088.603-.188.874-.37.398-.29.8-.577 1.25-.775.374-.2.824-.056 1.23-.1.296.02.4-.37.658-.47.28-.108.54-.31.853-.262h1.343c.014.267.006.537-.127.777-.063.444-.636.25-.955.384-.39.108-.74.327-1.116.476-.292.166-.607.23-.94.193-.332-.083-.563.13-.794.334-.245.185-.472.41-.737.56-.817.195-1.625.424-2.434.644-.488-.05-.977-.098-1.465-.147.148-.366.294-.732.44-1.098z" fill-rule="evenodd"/><path d="M44.094 64.938c-.298.01-.564.1-.72.28-.62.726-.696 1.454-.593 2.282.105.828.407 1.344.407 1.344s-2.278-.538-3.624.187c-1.347.726-2.504 1.99-2.844 2.282-2.758 3.368-3.103 4.672-3.69 6.063-.585 1.39-1.26 2.87-1.405 4.188-.146 1.317-.282 5.178-.063 7.374.2 2 .476 4.287.532 4.75-.083-.228-.285-.463-.688-.5-.805-.073-2.34.433-3 1.532-.66 1.097-.96 2.577-.812 3.75.146 1.17.735 2.548 1.687 3.28.953.732 1.986.97 3.157.97 1.172 0 .197 1.286 1.094 3.06.898 1.777 1.39 2.477 2.5 4.032 1.1 1.538 4.965 7.77 8.626 10.844 3.66 3.076 10.845 7.772 15.532 9.97 4.686 2.196 8.062 3.5 15.53 5.843 7.47 2.342 14.332 2.063 17.407 1.624 3.075-.44 5.865.12 10.844-1.344 4.978-1.464 12.01-4.083 16.843-6.72 4.832-2.635 8.338-5.713 12-9.374 3.66-3.66 7.783-9.588 9.687-13.47 1.904-3.88 3.425-9.017 3.938-12.092.512-3.076 1.03-8.5 1.03-8.5s1.77-.06 2.282-.938c.513-.878.78-3.594.78-3.594s1.56.36 2.22-.593c.66-.953 1.313-4.158 1.313-4.157l1.75-2.22s.885-.777.812-1.656c-.073-.878.13-1.977-.97-2.343-1.097-.366-4.218.72-4.218.72s.205-.72-1.406-.94c-1.61-.22-6.155 4.314-6.155 4.314s-2.12-2.86-3.22-3.813c-1.097-.952-3.28-1.625-3.28-1.625s1.02.377 1.53 2.28c.514 1.905-.874 6.814-.874 6.814s-1.183-3.518-2.06-4.25c-.88-.732-3.214-1.313-4.75-1.313-1.54 0-5.29 1.384-6.095 1.97-.805.586-5.832 4.477-6.125 5.063-.293.585.414 1.593 1 1.593.586 0 3.737.146 4.25.22.513.072.588 1.467 1.906 1.686 1.318.22 2.873.22 3.313-.218.438-.44.718-.782.718-.78 0 0-.144 1.878-.657 3.342-.51 1.465-3.086 2.924-4.624 3.656-1.537.733-3.362 2.29-3.875 3.094-.51.806-1.25 1.688-1.25 1.688s-2.545.864-3.936.937c-1.39.074-7.553-1.382-10.43-2.882-2.798-1.46-7.12-6.194-8.226-10.717 2.124-.634 4.988-2.378 5.846-4.396 1.04-2.442-.233-5.236-1.216-6.327-2.725-3.022-6.516-2.94-9.187-1.81-2.582 1.096-4.04 3.076-4.04 3.076s-2.38-3.136-4.93-4.127c-2.553-.99-4.73-.484-6.792 1.26-2.003 1.69-5.476 10.703 3.282 11.864 0 0-1.74 6.084-6.325 9.584-4.584 3.5-9.377 4.415-12.012 4.415-2.636 0-7.96-1.897-9.72-3.658-1.76-1.76-1.362-3.08-2.812-4.53-1.448-1.45-1.752-1.268-2.374-2.407-.62-1.14-.62-2.59 0-3.625.622-1.036.943-.906 1.875-.906.933 0 .83 1.128 1.658 1.75.828.62 1.964.935 3 .625 1.035-.312 1.74-.632 1.843-1.564.105-.932.126-2.187.126-2.187s.83 1.163 1.97.75c1.138-.415 2.593-2.5 2.593-2.5s1.55-.192 1.655-.814c.104-.62-.234-2.304-1.062-2.72-.83-.413-2.465-1.13-3.5-2.374-1.036-1.242-.304-2.464-2.375-3.5-2.072-1.035-5.4-1.562-6.125-1.562-.725 0-1.555-.418-1.97-.625-.31-.155-1.606-.72-2.5-.688zm-3.25 26.437s.598 2.042 4.406 4.53c3.808 2.49 8.645 4.968 11.28 5.407 2.637.44 8.028.674 10.532.157 3.836-.794 11.614-5.934 16.015-12.095 0 0 3.41 3.27 6.108 3.27 2.703 0 5.2-3.63 5.2-3.63s5.065 7.904 9.46 9.954c4.392 2.05 10.96 3.512 15.5 2.78 4.54-.732 17.28-5.688 17.28-5.688s.165 2.17-2.03 6.563c-2.198 4.393-5.446 10.25-11.157 14.938-5.712 4.686-12.577 8.356-19.313 10.406-6.736 2.05-15.365 3.24-20.344 2.655-4.978-.586-10.118-1.32-16.56-4.688-6.445-3.368-11.856-5.716-16.69-11.28-4.83-5.566-8.788-10.713-9.374-14.813-.586-4.1-.166-8.47-.312-8.47z" fill="#ffcb05" fill-rule="evenodd" stroke="#000"/><path d="M126.85 76.628c.272-.166.486-.458.803-.525.28-.006.636-.29.833.005.237.194-.057.445-.083.67-.147.242-.497.198-.732.316-.296.108-.617-.02-.925-.02-.262-.096-.056-.363.105-.446zM131.726 85.36c.083-.72-.007-1.485.355-2.142.242-.703.58-1.37 1.295-1.684.6-.285 1.205-.848 1.874-.817.397.494-.657.705-.94.997-.326.407-.54.902-.813 1.35-.437.8-.682 1.69-1.143 2.48-.197.656-.368 1.318-.555 1.976-.306-.368-.044-.87-.106-1.3.01-.286.02-.573.032-.86zM139.276 85.767c.298-1.263.677-2.512.79-3.81.153-.95.233-1.91.224-2.872.08-.423-.194-1.128.358-1.25.4.516.336 1.21.508 1.814.18.8.067 1.63.19 2.44.52-.057 1.4.777.526.944-.537.176-1.03.376-1 1.033-.097.466-.464 1.254.336 1.058.803-.17.74.875.2 1.077-.662.276-.95 1.01-1.446 1.49-.41.394-.853.815-1.36 1.07-.42.08-1.143.545-.967-.218.422-.493.853-.983 1.126-1.578.23-.375.375-.787.516-1.2zM145.334 74.17c-.256.55-.72 1.042-.662 1.687.036.692.196 1.377.314 2.06.31.606 1.29.17 1.698-.162.537-.406.844-1.014 1.26-1.526.685-.357 1.373-.712 2.13-.88.27-.214.805-.067.357.19-.527.316-1.293.358-1.65.866-.335.52-.67 1.05-.646 1.694-.094.67-.29 1.36.203 1.92-.542.25-.968-.413-1.475-.548-.62-.197-1.442-.022-1.66.68-.263.504-.272 1.184-.02 1.69.434.41.9.803.93 1.463.205.912-.957.695-1.137.035-.475-.413-1.193-.8-1.005-1.555.16-1.637.408-3.31.046-4.937-.148-.708-.47-1.344-.86-1.947-.187-.303-.463-.688.05-.362.495.32.984.423 1.455-.007l.674-.36z" fill-rule="evenodd"/><path d="M79.424 73.807c-.026-1.14 1.362-2.02 2.563-2.02 1.198 0 2.79.635 3.65 2.77.852 2.114.522 5.968-.07 8.44-.575 2.404-.85 3.98-2.444 6.285M98.166 73.807c.026-1.14-1.362-2.02-2.563-2.02-1.198 0-2.79.635-3.65 2.77-.852 2.114-.973 3.99-.736 6.537.236 2.546 1.98 5.518 3.286 8.04" fill="none" stroke="#000"/><path d="M79.134 81.79c1.17.124 1.988.063 3.27-.41 1.264-.467 1.808-1.545 2.46-2.976-.787 1.068-1.373 1.763-2.52 2.244-1.156.483-2.238.37-3.173.21-.01.206-.023.725-.036.932zM98.007 82.1c-1.168.125-1.988.064-3.27-.41-1.264-.466-1.99-1.525-2.46-2.975.787 1.07 1.374 1.763 2.522 2.244 1.154.482 2.236.37 3.17.208.013.207.025.726.037.933zM57.16 79.554s-2.433-2.07-3.106-2.59c-.673-.517-1.19-.724-1.19-.517 0 .207.102.932.568 1.45.466.518 1.916 1.864 1.916 1.864l1.812-.206zM43.026 67.128l.93 1.294 1.244.828.83.31-.105.312-.828.155-1.347-.414-1.035-.725.31-1.76zM50.962 69.837c.31.322.48.824.902 1.004.413.21.733.11 1 .523.232.226.686.947 1.033.57.267-.253.582-1.12.32-1.31-.37-.427-1.348-.226-1.802-.55-.345-.21-.748-.378-.965-.703-.395-.345-.426.078-.463.393l-.025.074z" fill-rule="evenodd"/><path d="M119.644 94.622l3.185-.55c-.037 1.466-.22 1.832-.55 2.784-.488 1.41-2.745 4.832-2.745 4.832" fill="none" stroke="#000"/><path d="M29.582 93.707c.456-.058.938-.11 1.38.047.242.087.334.348.453.55.2.384.277.87.057 1.26-.177.38-.38.767-.4 1.192-.028.234.076.4.17.57.114.17.466.18.68.142.612-.083 1.096-.57 1.364-1.102.18-.377.276-.79.34-1.2.065-.494-.138-.98-.404-1.384-.395-.493-1.01-.732-1.6-.902-.124-.054-.245-.062-.354.018l-1.686.81z" fill-rule="evenodd"/><path d="M35.656 87.78s.97 4.38.97 5.407c0 .992-.297 2.692-.626 4.157-.322 1.43-.925 2.816-1.438 3.22-.472.37-1.546 1.196-2.937 1.342-1.043.11-1.78-.144-2.094-.28.508.33 3.57 2.014 4.47 1.468.245-.15.503-.414.75-.72.294 1.433.52 2.33.97 2.907.51.66 1.03 1.095 1.03 1.095s-.863-1.173-1.156-2.125c-.215-.697-.308-1.87-.344-2.594.532-.834.997-1.782 1.156-2.344.275-.97.75-2.617.75-4.374 0-1.758-.162-2.38-.406-3.25l-1.094-3.907zM48.462 120.715c4.894 2.962 22.68 13.245 42.496 12.952 19.816-.294 29.54-8.09 40.552-15.85-8.14 10.16-25.955 17.895-42.138 17.895-16.476 0-37.907-11.476-40.91-14.997z" fill-rule="evenodd"/><path d="M103.225 108.633v10.086s-3.373-4.194-5.38-4.23H90.81v9.736c-.06.858 1.232 1.32 3.146 1.32v2.124H82.74v-2.125h2.778v-28.29h-4.03v-2.76h18.39s3.072 8.364 3.157 10.805h-1.17c-.48-2.254-4.937-8.044-6.323-8.044h-4.826V111.9h7.13c2.192 0 5.38-3.267 5.38-3.267z" fill="#ffe991" stroke="#000" stroke-width=".5" stroke-linejoin="bevel"/><path d="M73.438 100.5v1.97h4.03v21.03h-4.03v2.125H86.5V123.5h-3.938v-9.938h3.594l13.125 12.094c1.074 1.027 1.646 1.175 4.19 1.22 2.588.044 5.012-2.144 5.06-3.564.05-1.372-1.11-2.093-2.436-2.093-1.28 0-2.502.445-2.875 2.405l-10.69-10.063c6.222 0 10.157-2.473 10.157-6.53 0-4.105-3.697-6.532-5.843-6.532H73.438zm9.03 1.97h11.094c1.98-.14 4.032 2.255 4.032 4.5 0 2.242-1.59 4.382-4.03 4.468H82.468v-8.97z" fill="#ffe991" stroke="#000" stroke-width=".5" stroke-linejoin="bevel"/></svg>